<svg xmlns="http://www.w3.org/2000/svg" fill="#2EA8D5" data-name="Layer 1" x="0px" y="0px"
    viewBox="56.14 43.24 399.46 425.52">
    <path
        d="M454.6,160.5a23.27,23.27,0,0,0-11.35-13.86L252.65,44.58a11.38,11.38,0,0,0-15.39,4.66l-112.76,211a11.39,11.39,0,0,0,4.65,15.39l49.93,26.73A44.17,44.17,0,1,0,225,326.92l94.76,50.74a23.16,23.16,0,0,0,11,2.76A23.45,23.45,0,0,0,351.45,368l36.7-69.66c.37,0,.73,0,1.09,0a19.43,19.43,0,0,0,17.14-10.24l12.46-23.26a19.45,19.45,0,0,0-1.63-20.84l35.62-65.76A23.25,23.25,0,0,0,454.6,160.5ZM185.19,378.66a32.59,32.59,0,1,1,32.59-32.59A32.62,32.62,0,0,1,185.19,378.66ZM408.62,259.45l-12.45,23.26a7.83,7.83,0,0,1-10.58,3.2l-47.13-25.24,19.83-37,47.13,25.24A7.83,7.83,0,0,1,408.62,259.45Zm34-86.62L407.85,237l-46.09-24.68a9.32,9.32,0,0,0-12.61,3.82l-22,41A9.32,9.32,0,0,0,331,269.81l46.11,24.7-35.88,68.1a11.83,11.83,0,0,1-16,4.83L134.72,265.68,247.18,54.8l190.6,102.06a11.81,11.81,0,0,1,4.85,16Z"></path>
    <path
        d="M153.6,407.88A30.44,30.44,0,1,0,184,438.32,30.48,30.48,0,0,0,153.6,407.88Zm0,49.3a18.86,18.86,0,1,1,18.86-18.86A18.88,18.88,0,0,1,153.6,457.18Z"></path>
    <path
        d="M262.64,375.09a34.28,34.28,0,1,0,34.28,34.28A34.32,34.32,0,0,0,262.64,375.09Zm0,57a22.7,22.7,0,1,1,22.69-22.69A22.72,22.72,0,0,1,262.64,432.06Z"></path>
    <path
        d="M102.59,347.3H88.18V326a5.8,5.8,0,0,0-11.59,0V347.3H62.18a5.8,5.8,0,1,0,0,11.59H76.59v21.27a5.8,5.8,0,0,0,11.59,0V358.89h14.41a5.8,5.8,0,1,0,0-11.59Z"></path>
    <path
        d="M371.62,418.46h-9.91V403.23a5.8,5.8,0,1,0-11.59,0v15.23h-9.9a5.8,5.8,0,1,0,0,11.59h9.9v15.23a5.8,5.8,0,0,0,11.59,0V430.05h9.91a5.8,5.8,0,0,0,0-11.59Z"></path>
    <path
        d="M319.72,135.11l5.71-10.89a5.79,5.79,0,1,0-10.25-5.38l-5.73,10.91c-11.53-3.48-25.28.25-32.86,9.63-4.64,5.73-13.13,21.64,8,45.74,10.78,12.31,13.59,23.53,7.7,30.81-5.26,6.51-16.34,8.61-23.7,4.5-14.42-8.08-12.5-18.27-12.44-18.6a5.79,5.79,0,0,0-11.25-2.76c-.18.71-3.71,16.19,13.26,28.43l-5.71,10.88a5.79,5.79,0,1,0,10.26,5.38l5.73-10.91a30.24,30.24,0,0,0,8.83,1.29c9.12,0,18.32-3.86,24-10.92,4.63-5.72,13.13-21.64-8-45.74-10.79-12.3-13.6-23.53-7.71-30.81,5.27-6.5,16.34-8.61,23.7-4.49,14.29,8,12.54,18.07,12.42,18.67A5.79,5.79,0,0,0,333,163.53C333.16,162.82,336.7,147.34,319.72,135.11Z"></path>
</svg>