<svg xmlns="http://www.w3.org/2000/svg" fill="#2EA8D5" data-name="Layer 1" x="0px" y="0px"
    viewBox="5.99 1.5 84.03 93">
    <path
        d="M89.97,76.656,84.254,55.324V22.274a1.292,1.292,0,0,0-.378-.913L68.929,6.414a1.29,1.29,0,0,0-.913-.378H61.57L54.013,1.673a1.291,1.291,0,0,0-.98-.129L36.268,6.036H20.3a1.291,1.291,0,0,0-1.291,1.292v3.333L6.943,13.894a1.291,1.291,0,0,0-.913,1.582l7.449,27.8a13.05,13.05,0,0,1-5.446,1.365,1.293,1.293,0,0,0-1.22.965,23.109,23.109,0,0,0,1.91,15.7A19.273,19.273,0,0,0,19.009,71.24V88.149A1.291,1.291,0,0,0,20.3,89.44h5.549l1.1,4.1A1.292,1.292,0,0,0,28.2,94.5a1.315,1.315,0,0,0,.334-.044L47.248,89.44H82.962a1.291,1.291,0,0,0,1.292-1.291V79.525l4.8-1.287A1.291,1.291,0,0,0,89.97,76.656ZM69.308,10.446,79.844,20.983H69.308ZM53.185,4.178,56.4,6.036H46.249ZM8.86,16.055l10.149-2.72V38.893a18.95,18.95,0,0,1-3.228,2.993Zm2.184,44.121a21.151,21.151,0,0,1-1.939-13.01A17.774,17.774,0,0,0,20.58,41.018a17.769,17.769,0,0,0,11.475,6.148,21.158,21.158,0,0,1-1.939,13.01c-2.2,4.5-5.663,7.713-9.536,8.865C16.707,67.889,13.246,64.677,11.044,60.176Zm18.065,31.45-.586-2.186h8.744Zm-7.517-4.769V71.43a17.812,17.812,0,0,0,8.92-6.867H74.5a1.292,1.292,0,0,0,0-2.584H32.1c.116-.22.231-.442.341-.668a25.453,25.453,0,0,0,1.7-4.519H74.5a1.292,1.292,0,0,0,0-2.583H34.689a22.421,22.421,0,0,0,.222-5.188H74.5a1.292,1.292,0,0,0,0-2.583H34.542c-.059-.28-.124-.558-.2-.832a1.292,1.292,0,0,0-1.219-.965c-4.229-.1-8.326-2.38-11.535-6.423V8.619H66.724V22.274a1.292,1.292,0,0,0,1.292,1.292H81.671V86.857ZM84.254,76.85V65.305L87.14,76.077ZM39.746,21.036a1.291,1.291,0,0,1,1.291-1.291h8.909a1.292,1.292,0,1,1,0,2.583H41.037A1.291,1.291,0,0,1,39.746,21.036Zm0,4.768a1.291,1.291,0,0,1,1.291-1.292H57.128a1.292,1.292,0,1,1,0,2.583H41.037A1.291,1.291,0,0,1,39.746,25.8Zm0,4.767a1.291,1.291,0,0,1,1.291-1.291H57.128a1.292,1.292,0,1,1,0,2.583H41.037A1.291,1.291,0,0,1,39.746,30.571Zm-9.883-.993v-1.29a1.292,1.292,0,1,1,2.583,0v1.29a1.643,1.643,0,0,0,3.209,0v-1.29c0-.766-.151-.948-1.876-1.319-1.465-.314-3.916-.84-3.916-3.844v-1.29a3.923,3.923,0,0,1,2.9-3.684V16.772a1.292,1.292,0,1,1,2.583,0v1.379a3.923,3.923,0,0,1,2.9,3.684v1.29a1.292,1.292,0,1,1-2.583,0v-1.29a1.643,1.643,0,0,0-3.209,0v1.29c0,.766.15.948,1.875,1.319,1.465.314,3.917.84,3.917,3.844v1.29a3.923,3.923,0,0,1-2.9,3.684v1.379a1.292,1.292,0,1,1-2.583,0V33.262A3.923,3.923,0,0,1,29.863,29.578ZM75.791,39.959A1.291,1.291,0,0,1,74.5,41.25H28.763a1.292,1.292,0,1,1,0-2.583H74.5A1.291,1.291,0,0,1,75.791,39.959Zm0,31.083A1.292,1.292,0,0,1,74.5,72.334H57.649a1.292,1.292,0,0,1,0-2.584H74.5A1.292,1.292,0,0,1,75.791,71.042Z"></path>
</svg>