<svg xmlns="http://www.w3.org/2000/svg" fill="#2EA8D5" data-name="Layer 1" x="0px" y="0px"
    viewBox="5.01 5.83 89.99 88.34">
    <defs>
        <style>.cls-1{fill-rule:evenodd;}</style>
    </defs>
    <title>a</title>
    <path class="cls-1"
        d="M50,5.831A18.865,18.865,0,0,1,58.176,41.7a35.057,35.057,0,0,1,11.675,4.8L70.91,44.53a1.362,1.362,0,0,1,2.4.013L80,56.962l13.882,2.517a1.361,1.361,0,0,1,.745,2.273h0l-9.758,10.2,1.9,13.987a1.36,1.36,0,0,1-1.939,1.406h0L72.109,81.225l-8.448,4.069.994,7.332a1.36,1.36,0,0,1-1.939,1.406h0L50,87.907,37.288,94.032a1.361,1.361,0,0,1-1.933-1.451l.988-7.287L27.9,81.225,15.181,87.35A1.361,1.361,0,0,1,13.248,85.9l1.891-13.943-9.758-10.2a1.36,1.36,0,0,1,.812-2.286l13.816-2.5L26.7,44.53a1.362,1.362,0,0,1,2.4.013L30.153,46.5a35.026,35.026,0,0,1,11.675-4.8A18.865,18.865,0,0,1,50,5.831ZM36.727,82.46l.518-3.821-9.757-10.2a1.36,1.36,0,0,1,.812-2.287l13.816-2.505,1.359-2.527-8.744-1.585a1.357,1.357,0,0,1-1.037-.707L27.9,48.047,22.1,58.825h0a1.358,1.358,0,0,1-.957.694L9.1,61.7l8.465,8.851a1.362,1.362,0,0,1,.362,1.119L16.277,83.8c3.675-1.771,7.357-3.532,11.027-5.312a1.356,1.356,0,0,1,1.183,0l8.24,3.97Zm8.1-23.858,3.976-7.39a1.362,1.362,0,0,1,2.4.014L55.176,58.6l9.046-1.64,4.334-8.056c-10.777-7.139-26.33-7.139-37.108,0l4.334,8.056,9.046,1.64Zm-5.65,26.027c0,.034-.008.068-.014.1l-.78,5.752,11.027-5.312a1.361,1.361,0,0,1,1.182,0L61.62,90.484l-.78-5.752c-.006-.035-.01-.069-.014-.1l-.846-6.244a1.357,1.357,0,0,1,.358-1.151l8.464-8.85-11.965-2.17a1.36,1.36,0,0,1-1.037-.706L50,54.729,44.2,65.508h0a1.353,1.353,0,0,1-.956.693L31.2,68.384l8.464,8.85a1.359,1.359,0,0,1,.362,1.119l-.85,6.276ZM71.555,49.076c-.015.031-.032.061-.049.091l-5.2,9.658h0a1.357,1.357,0,0,1-.956.694l-8.823,1.6,1.359,2.526L71.77,66.161a1.362,1.362,0,0,1,.745,2.274h0l-9.757,10.2.518,3.821q4.122-1.981,8.24-3.97a1.356,1.356,0,0,1,1.183,0L83.727,83.8l-1.64-12.1a1.359,1.359,0,0,1,.357-1.151L90.909,61.7,78.944,59.532a1.357,1.357,0,0,1-1.037-.707l-5.8-10.778-.554,1.029ZM49.991,40.827A16.134,16.134,0,1,0,33.868,24.693,16.127,16.127,0,0,0,49.991,40.827Z"></path>
</svg>