<svg xmlns="http://www.w3.org/2000/svg" fill="#2EA8D5" data-name="Layer 1" x="0px" y="0px"
    viewBox="7.2 5 85.61 89.99">
    <path
        d="M22.371,64.633H15.515a1.076,1.076,0,0,0-1.076,1.076V79.836a1.076,1.076,0,0,0,1.076,1.076h6.856a1.075,1.075,0,0,0,1.075-1.076V65.709A1.075,1.075,0,0,0,22.371,64.633ZM21.3,78.761H16.59V66.785H21.3Zm14.58-20.984H29.019a1.076,1.076,0,0,0-1.076,1.076V79.836a1.076,1.076,0,0,0,1.076,1.076h6.856a1.075,1.075,0,0,0,1.075-1.076V58.853A1.075,1.075,0,0,0,35.875,57.777ZM34.8,78.761h-4.7V59.929h4.7Zm14.58-17.452H42.523a1.076,1.076,0,0,0-1.076,1.076V79.836a1.076,1.076,0,0,0,1.076,1.076h6.856a1.076,1.076,0,0,0,1.076-1.076V62.385A1.076,1.076,0,0,0,49.379,61.309ZM48.3,78.761H43.6v-15.3h4.7ZM14.439,42.308a1.075,1.075,0,0,1,1.076-1.075H30.473a1.076,1.076,0,1,1,0,2.151H15.515A1.076,1.076,0,0,1,14.439,42.308ZM50.455,50a1.076,1.076,0,0,1-1.076,1.076H15.515a1.076,1.076,0,1,1,0-2.151H49.379A1.075,1.075,0,0,1,50.455,50Zm28.638,29.2c0,2.351-2.054,4.313-4.758,4.731v1.134a1.076,1.076,0,1,1-2.151,0V83.924a6.011,6.011,0,0,1-3.774-2.047,1.076,1.076,0,0,1,1.671-1.356,4.134,4.134,0,0,0,3.178,1.333c2,0,3.682-1.219,3.682-2.663s-1.686-2.662-3.682-2.662c-3.216,0-5.833-2.16-5.833-4.814,0-2.351,2.053-4.313,4.758-4.73V65.85a1.076,1.076,0,1,1,2.151,0v1.133a6,6,0,0,1,3.773,2.046,1.076,1.076,0,1,1-1.67,1.356,4.138,4.138,0,0,0-3.179-1.333c-2,0-3.682,1.22-3.682,2.663s1.686,2.662,3.682,2.662C76.476,74.377,79.093,76.537,79.093,79.191ZM76.932,56.255V11.806a1.075,1.075,0,0,0-1.076-1.075H71.2V6.077A1.076,1.076,0,0,0,70.127,5H21.95a1.078,1.078,0,0,0-.76.315L7.51,19a1.075,1.075,0,0,0-.315.761V85.181a1.076,1.076,0,0,0,1.076,1.076h4.653v4.654A1.075,1.075,0,0,0,14,91.986H62.846A19.543,19.543,0,1,0,76.932,56.255ZM74.781,12.882V55.966q-.755-.059-1.522-.059a19.678,19.678,0,0,0-2.056.109V12.882ZM20.875,8.674V18.681H10.868ZM9.346,20.832H21.951a1.075,1.075,0,0,0,1.075-1.075V7.153H69.051V56.365a19.373,19.373,0,0,0-5.092,1.9V49.3a1.075,1.075,0,0,0-1.076-1.075H56.027A1.075,1.075,0,0,0,54.952,49.3V68.608a19.528,19.528,0,0,0,.785,15.5H9.346ZM61.807,59.624a19.706,19.706,0,0,0-4.7,4.841V50.372h4.7ZM15.076,89.835V86.257h41.9a19.708,19.708,0,0,0,3.059,3.578Zm58.183,3.012A17.394,17.394,0,1,1,90.654,75.453,17.414,17.414,0,0,1,73.259,92.847Zm0-32.577A15.183,15.183,0,1,0,88.442,75.453,15.2,15.2,0,0,0,73.259,60.27Zm0,28.214A13.031,13.031,0,1,1,86.291,75.453,13.046,13.046,0,0,1,73.259,88.484ZM47.084,41.232A14.446,14.446,0,1,0,32.639,26.787,14.461,14.461,0,0,0,47.084,41.232Zm0-2.151a12.23,12.23,0,0,1-3.835-.616l4.544-10.6H59.328A12.309,12.309,0,0,1,47.084,39.081Zm12.244-13.37H48.16V14.543A12.31,12.31,0,0,1,59.328,25.711ZM46.008,14.543V26.566L41.272,37.617a12.29,12.29,0,0,1,4.736-23.074Z"></path>
</svg>