<svg xmlns="http://www.w3.org/2000/svg" fill="#2EA8D5" xmlns:xlink="http://www.w3.org/1999/xlink"
    version="1.1"
    x="0px" y="0px" style="enable-background:new 0 0 98 98;" xml:space="preserve"
    viewBox="3.97 4.04 90.06 89.92"><path d="M13.785,32.425c-0.39-0.676-0.159-1.54,0.517-1.93l29.069-16.783l-2.256-0.447c-0.765-0.152-1.263-0.895-1.111-1.66  c0.152-0.766,0.895-1.263,1.66-1.111l5.943,1.177c0.4,0.079,0.746,0.327,0.949,0.679c0.204,0.353,0.245,0.776,0.114,1.162  l-1.952,5.735c-0.2,0.588-0.749,0.958-1.337,0.958c-0.151,0-0.305-0.024-0.455-0.076c-0.739-0.251-1.134-1.054-0.882-1.793  l0.741-2.177l-29.07,16.783c-0.222,0.128-0.465,0.19-0.705,0.19C14.521,33.131,14.046,32.878,13.785,32.425z M31.631,34.471v17.896  c0,0.78-0.633,1.413-1.413,1.413h-6.821c-0.78,0-1.413-0.633-1.413-1.413V34.471c0-0.78,0.633-1.413,1.413-1.413h6.821  C30.999,33.058,31.631,33.69,31.631,34.471z M28.806,35.883H24.81v15.071h3.996V35.883z M19.72,40.714v11.652  c0,0.78-0.633,1.413-1.413,1.413h-6.821c-0.78,0-1.413-0.633-1.413-1.413V40.714c0-0.78,0.633-1.413,1.413-1.413h6.821  C19.087,39.302,19.72,39.934,19.72,40.714z M16.894,42.127h-3.996v8.827h3.996V42.127z M15.468,71.44H12.36  c-0.78,0-1.413,0.633-1.413,1.413s0.633,1.413,1.413,1.413h3.108c0.78,0,1.413-0.633,1.413-1.413S16.248,71.44,15.468,71.44z   M15.468,65.223H12.36c-0.78,0-1.413,0.633-1.413,1.413s0.633,1.413,1.413,1.413h3.108c0.78,0,1.413-0.633,1.413-1.413  S16.248,65.223,15.468,65.223z M15.468,59.007H12.36c-0.78,0-1.413,0.633-1.413,1.413s0.633,1.413,1.413,1.413h3.108  c0.78,0,1.413-0.633,1.413-1.413S16.248,59.007,15.468,59.007z M92.338,92.265c-1.129,1.129-2.612,1.693-4.095,1.693  c-1.483,0-2.966-0.564-4.095-1.693l-14.56-14.56c-0.552-0.552-0.552-1.446,0-1.998l0.347-0.347l-2.248-2.248  c-1.855,1.298-3.918,2.319-6.127,3.003v2.098c0,2.264-1.842,4.105-4.105,4.105H8.073c-2.263,0-4.105-1.841-4.105-4.105V20.529  c0-1.112,0.416-2.116,1.202-2.903L17.553,5.244c0.786-0.787,1.79-1.202,2.903-1.202h36.999c2.263,0,4.105,1.841,4.105,4.105V33.79  c9.032,2.794,15.613,11.224,15.613,21.162c0,4.705-1.476,9.07-3.987,12.661l2.248,2.248l0.347-0.347  c0.552-0.551,1.446-0.551,1.998,0l14.56,14.56C94.596,86.333,94.596,90.007,92.338,92.265z M55.026,35.632  c-10.654,0-19.321,8.667-19.321,19.321c0,10.653,8.667,19.321,19.321,19.321s19.321-8.667,19.321-19.321  C74.347,44.299,65.679,35.632,55.026,35.632z M40.718,29.639h-3.996v12.861c1.128-1.653,2.474-3.145,3.996-4.436V29.639z   M52.63,23.395h-3.996v10.354c1.287-0.389,2.623-0.663,3.996-0.812V23.395z M8.792,18.001h8.118c0.561,0,1.018-0.457,1.018-1.018  V8.865L8.792,18.001z M58.734,76.787c-1.206,0.204-2.445,0.312-3.708,0.312c-3.931,0-7.625-1.031-10.828-2.834H21.386  c-0.78,0-1.413-0.633-1.413-1.413s0.633-1.413,1.413-1.413h18.87c-1.138-1.021-2.17-2.157-3.078-3.391H21.386  c-0.78,0-1.413-0.633-1.413-1.413s0.633-1.413,1.413-1.413H35.41c-0.568-1.081-1.05-2.214-1.435-3.391H21.386  c-0.78,0-1.413-0.633-1.413-1.413s0.633-1.413,1.413-1.413h11.867c-0.244-1.315-0.373-2.67-0.373-4.054  c0-2.312,0.357-4.543,1.017-6.64V28.226c0-0.78,0.633-1.413,1.413-1.413h6.821c0.78,0,1.413,0.633,1.413,1.413v7.796  c0.728-0.443,1.485-0.845,2.265-1.204V21.982c0-0.78,0.633-1.413,1.413-1.413h6.821c0.78,0,1.413,0.633,1.413,1.413v10.83  c1.115,0.021,2.21,0.126,3.279,0.307V8.146c0-0.705-0.574-1.28-1.28-1.28H20.753v10.116c0,2.119-1.724,3.844-3.844,3.844H6.794  v57.387c0,0.705,0.574,1.28,1.28,1.28h49.381c0.705,0,1.28-0.574,1.28-1.28V76.787z M71.933,73.363l1.503-1.503l-2.024-2.024  c-0.477,0.525-0.978,1.026-1.503,1.503L71.933,73.363z M72.585,76.706l1.99,1.99l4.194-4.194l-1.99-1.99L72.585,76.706z   M90.34,86.073L80.767,76.5l-4.194,4.194l9.574,9.573c1.156,1.156,3.038,1.156,4.194,0C91.496,89.111,91.496,87.23,90.34,86.073z   M55.026,36.852c9.981,0,18.1,8.12,18.1,18.1s-8.12,18.1-18.1,18.1s-18.1-8.12-18.1-18.1S45.045,36.852,55.026,36.852z   M55.026,39.678c-8.423,0-15.275,6.852-15.275,15.275c0,8.422,6.852,15.275,15.275,15.275s15.275-6.852,15.275-15.275  C70.301,46.53,63.448,39.678,55.026,39.678z M51.948,44.207c1.908,0.664,4.471,0.664,6.379,0c0.993-0.345,2.056-0.283,2.994,0.176  c0.938,0.459,1.639,1.26,1.976,2.256l2.575,7.621c0.074-0.026,0.146-0.051,0.22-0.078c0.743-0.27,1.547-0.233,2.263,0.102  c0.717,0.335,1.26,0.93,1.529,1.673c0.556,1.535-0.24,3.237-1.775,3.793c-0.733,0.265-1.448,0.506-2.152,0.729  c0.01,0.113,0.017,0.226,0.017,0.34c0,2.697-2.715,4.81-6.18,4.81c-1.939,0-3.643-0.662-4.768-1.717  c-1.125,1.055-2.829,1.717-4.768,1.717c-3.466,0-6.18-2.113-6.18-4.81c0-0.114,0.007-0.228,0.017-0.341  c-0.703-0.223-1.418-0.463-2.151-0.728c0,0-0.001,0-0.001,0c-0.744-0.27-1.338-0.813-1.673-1.529  c-0.335-0.717-0.371-1.521-0.102-2.264c0.557-1.535,2.259-2.332,3.793-1.775c0.141,0.051,0.28,0.099,0.419,0.148l2.599-7.691  c0.336-0.996,1.038-1.797,1.976-2.256C49.893,43.924,50.956,43.861,51.948,44.207z M50.258,62.804c0.94,0,1.741-0.238,2.327-0.586  c-1.801-0.143-3.638-0.444-5.562-0.914C47.394,62.085,48.619,62.804,50.258,62.804z M63.029,61.304  c-1.924,0.47-3.761,0.771-5.562,0.914c0.585,0.349,1.387,0.586,2.326,0.586C61.433,62.804,62.658,62.085,63.029,61.304z   M67.054,56.838c-4.473,1.618-8.295,2.372-12.028,2.372c-3.733,0-7.555-0.753-12.027-2.371c-0.071-0.025-0.15,0.011-0.175,0.082  c-0.013,0.035-0.011,0.07,0.005,0.104c0.016,0.034,0.042,0.057,0.077,0.07c4.52,1.635,8.371,2.397,12.12,2.397  c3.749,0,7.601-0.762,12.121-2.397c0.034-0.012,0.06-0.036,0.076-0.07c0.016-0.034,0.017-0.069,0.005-0.104  c-0.013-0.035-0.036-0.061-0.07-0.077C67.124,56.827,67.089,56.825,67.054,56.838z M51.02,46.876  c-0.275-0.096-0.568-0.08-0.823,0.045c-0.255,0.125-0.448,0.346-0.541,0.622l-2.584,7.647c2.857,0.81,5.439,1.195,7.954,1.195  c2.574,0,5.219-0.403,8.158-1.253l-2.564-7.588c-0.093-0.276-0.285-0.497-0.541-0.622c-0.255-0.125-0.548-0.141-0.823-0.045  C56.754,47.746,53.522,47.746,51.02,46.876z"></path></svg>