<svg xmlns="http://www.w3.org/2000/svg" fill="#2EA8D5" xmlns:xlink="http://www.w3.org/1999/xlink"
	version="1.1"
	x="0px" y="0px" style="enable-background:new 0 0 100 100;" xml:space="preserve"
	viewBox="2.57 19.02 94.86 61.96"><style type="text/css"> 	.st0{fill-rule:evenodd;clip-rule:evenodd;} </style><path d="M97,45.12L82.87,20.65c-0.89-1.54-2.87-2.07-4.41-1.18l-7.46,4.31c-1.54,0.89-2.07,2.87-1.18,4.4l0.73,1.27  c-2.66,1.6-8.49,0.64-11.81-0.44c-0.8-0.26-1.5-0.2-2.14-0.09l-10.47,1.73c-1.44,0.24-2.56,0.85-3.41,1.88l-0.84,1.02  c-5.45-0.27-10.36-2.96-12.39-4.22l0.67-1.16c0.89-1.54,0.36-3.52-1.18-4.41l-7.46-4.31c-1.54-0.89-3.52-0.36-4.4,1.18L3,45.1  c-0.43,0.74-0.54,1.61-0.32,2.45c0.22,0.83,0.76,1.53,1.5,1.96l7.46,4.31c0.5,0.29,1.05,0.43,1.6,0.43c0.28,0,0.56-0.04,0.84-0.11  c0.76-0.2,1.4-0.68,1.84-1.33c0.85,1.96,1.84,3.53,3.34,4.93c-0.99,1-1.54,2.33-1.54,3.75c0,1.43,0.55,2.77,1.56,3.78  c1.04,1.04,2.41,1.56,3.78,1.56c0.65,0,1.29-0.13,1.9-0.36c0.17,1.11,0.67,2.14,1.48,2.95c1.04,1.04,2.41,1.56,3.78,1.56  c0.68,0,1.37-0.13,2.01-0.39c0.18,1.05,0.67,2.06,1.48,2.87c1.04,1.04,2.41,1.56,3.78,1.56c0.58,0,1.15-0.11,1.7-0.3  c0.15,1.12,0.63,2.21,1.5,3.07c1.04,1.04,2.41,1.56,3.78,1.56c1.37,0,2.74-0.52,3.78-1.56L50.07,76l7.38,4.26  c0.84,0.48,1.76,0.72,2.66,0.72c1.85,0,3.65-0.96,4.64-2.67c0.55-0.95,0.77-2.01,0.7-3.03c0.76,0.13,1.55,0.1,2.32-0.11  c1.38-0.37,2.54-1.25,3.25-2.49c0.53-0.93,0.77-1.97,0.7-3.02c2.16,0.4,4.44-0.57,5.6-2.58c0.53-0.92,0.77-1.95,0.7-2.98  c2.19,0.44,4.51-0.53,5.69-2.57c0.71-1.23,0.9-2.67,0.53-4.06c-0.24-0.91-0.73-1.7-1.37-2.35c0.45-0.72,0.84-1.49,1.19-2.31  c0.43,0.66,1.08,1.14,1.84,1.34c0.28,0.07,0.56,0.11,0.84,0.11c0.56,0,1.11-0.15,1.6-0.43l7.46-4.31  C97.36,48.64,97.89,46.66,97,45.12z M44.81,34.24c0.43-0.52,0.98-0.81,1.77-0.94l10.47-1.73c0.44-0.07,0.66-0.07,0.87,0  c3.62,1.18,10.23,2.38,13.98,0.2l10.44,18.09c-0.52,1.46-1.03,2.68-1.67,3.74L54.65,38.58c-0.22-0.13-0.48-0.19-0.74-0.18  l-5.63,0.27c-0.4,0.02-0.78,0.22-1.02,0.54c-3.91,5.27-8.17,4.96-9.9,4.05L44.81,34.24z M13.72,51.29c-0.1,0.17-0.25,0.23-0.33,0.25  c-0.08,0.02-0.24,0.04-0.41-0.05c0,0,0,0,0,0l-7.46-4.31c-0.17-0.1-0.23-0.25-0.25-0.33s-0.04-0.24,0.05-0.41l14.13-24.47  c0.1-0.17,0.28-0.27,0.47-0.27c0.09,0,0.18,0.02,0.27,0.07l7.46,4.31c0.26,0.15,0.34,0.48,0.2,0.73L13.72,51.29z M21.19,63.37  c-0.5-0.5-0.77-1.17-0.77-1.88c0-0.71,0.27-1.38,0.77-1.88l6.39-6.39c1.04-1.04,2.72-1.04,3.76,0c1.04,1.04,1.04,2.72,0,3.76l0,0  l-4.89,4.89c0,0,0,0,0,0l0,0l-1.5,1.5C23.91,64.41,22.22,64.41,21.19,63.37z M28.35,67.53c-0.5-0.5-0.77-1.17-0.77-1.88  c0-0.71,0.27-1.38,0.77-1.88l7.9-7.9v0c1.04-1.04,2.72-1.04,3.76,0c1.04,1.04,1.04,2.72,0,3.76l-6.28,6.28l0,0  c-0.01,0.01-0.01,0.02-0.02,0.03l-1.58,1.58C31.07,68.57,29.38,68.57,28.35,67.53z M35.62,71.58c-1.03-1.03-1.03-2.69-0.02-3.73  l6.31-6.31c0.04-0.04,0.06-0.08,0.09-0.11L42,61.43c1.04-1.04,2.72-1.04,3.76,0c1.04,1.04,1.04,2.72,0,3.76l-5.07,5.07h0  c0,0,0,0,0,0l-1.32,1.32C38.34,72.61,36.65,72.61,35.62,71.58z M46.35,75.91c-1.04,1.04-2.72,1.04-3.76,0  c-1.04-1.04-1.04-2.72,0-3.76l5.07-5.07c0.5-0.5,1.17-0.77,1.88-0.77c0.71,0,1.38,0.27,1.88,0.77c0.5,0.5,0.77,1.17,0.77,1.88  c0,0.71-0.27,1.38-0.77,1.88L46.35,75.91z M81.39,60.18c-0.73,1.27-2.36,1.71-3.63,0.97l-2.39-1.38c-0.64-0.37-1.46-0.15-1.84,0.49  c-0.37,0.64-0.15,1.47,0.49,1.84c0,0,0,0,0,0l0,0c0.61,0.35,1.05,0.93,1.23,1.61c0.18,0.69,0.09,1.4-0.26,2.02  c-0.73,1.27-2.36,1.71-3.63,0.97l-2.3-1.33c0,0-0.01,0-0.01,0c-0.64-0.37-1.46-0.15-1.84,0.49c-0.37,0.64-0.15,1.47,0.49,1.84l0,0  c0.61,0.35,1.05,0.93,1.23,1.61c0.18,0.69,0.09,1.4-0.26,2.02c-0.35,0.61-0.93,1.05-1.61,1.23c-0.69,0.18-1.4,0.09-2.02-0.26  L62.79,71c-0.64-0.37-1.46-0.15-1.84,0.49c-0.37,0.64-0.15,1.46,0.49,1.84l0,0c1.27,0.73,1.7,2.36,0.97,3.63  c-0.73,1.27-2.36,1.71-3.63,0.97l-6.75-3.9l1.28-1.28c1.01-1.01,1.56-2.35,1.56-3.78c0-1.43-0.55-2.77-1.56-3.78  c-1.01-1.01-2.35-1.56-3.78-1.56c-0.12,0-0.23,0.03-0.35,0.03c0.1-1.48-0.4-3-1.53-4.13c-1.15-1.15-2.71-1.65-4.22-1.52  c0.07-1.45-0.43-2.93-1.54-4.03c-2-2-5.2-2.06-7.3-0.21c-0.23-0.89-0.67-1.74-1.37-2.44c-2.08-2.08-5.48-2.08-7.56,0l-4.51,4.51  c-1.66-1.54-2.56-3.35-3.5-5.99l10.5-18.18c2.06,1.29,6.47,3.67,11.68,4.39l-4.59,5.56c-0.51,0.62-0.69,1.42-0.5,2.24  c0.17,0.77,0.65,1.4,1.35,1.78c2.36,1.26,8.01,1.92,12.94-4.3l4.62-0.22l26.77,15.45c0.61,0.35,1.05,0.93,1.23,1.61  C81.83,58.86,81.74,59.57,81.39,60.18z M94.48,47.2l-7.46,4.31c0,0,0,0,0,0c-0.17,0.1-0.33,0.07-0.41,0.05  c-0.08-0.02-0.23-0.08-0.33-0.25L72.16,26.84c-0.15-0.26-0.06-0.58,0.2-0.73l7.46-4.31c0.08-0.05,0.18-0.07,0.27-0.07  c0.19,0,0.37,0.1,0.47,0.27l14.13,24.47C94.82,46.72,94.73,47.05,94.48,47.2z"></path></svg>