<svg xmlns="http://www.w3.org/2000/svg" fill="#2EA8D5" xmlns:xlink="http://www.w3.org/1999/xlink"
    version="1.1"
    x="0px" y="0px" style="enable-background:new 0 0 48 48;" xml:space="preserve"
    viewBox="3.5 3.5 41.02 41.02"><g><path d="M42,21.5c-1.21,0-2.22,0.86-2.45,2h-1.08c-0.12-3.62-1.58-6.9-3.89-9.38l0.76-0.76c0.42,0.28,0.9,0.41,1.38,0.41   c0.64,0,1.28-0.24,1.77-0.73c0.97-0.98,0.97-2.56,0-3.54c-0.97-0.98-2.56-0.98-3.54,0c-0.47,0.47-0.73,1.1-0.73,1.77   c0,0.5,0.15,0.97,0.41,1.38l-0.76,0.76c-2.48-2.31-5.76-3.77-9.38-3.89V8.45c1.14-0.23,2-1.24,2-2.45c0-1.38-1.12-2.5-2.5-2.5   c-1.38,0-2.5,1.12-2.5,2.5c0,1.21,0.86,2.22,2,2.45v1.08c-3.62,0.12-6.9,1.58-9.38,3.89l-0.76-0.76c0.64-0.97,0.54-2.29-0.32-3.15   c-0.94-0.94-2.59-0.94-3.54,0c-0.47,0.47-0.73,1.1-0.73,1.77s0.26,1.3,0.73,1.77c0.49,0.49,1.13,0.73,1.77,0.73   c0.48,0,0.96-0.14,1.38-0.41l0.76,0.76c-2.31,2.48-3.77,5.76-3.89,9.38H8.45c-0.23-1.14-1.24-2-2.45-2c-1.38,0-2.5,1.12-2.5,2.5   s1.12,2.5,2.5,2.5c1.21,0,2.22-0.86,2.45-2h1.08c0.12,3.62,1.58,6.9,3.89,9.38l-0.76,0.76c-0.97-0.64-2.29-0.54-3.15,0.32   c-0.47,0.47-0.73,1.1-0.73,1.77s0.26,1.3,0.73,1.77c0.47,0.47,1.1,0.73,1.77,0.73s1.3-0.26,1.77-0.73   c0.85-0.85,0.96-2.18,0.32-3.15l0.76-0.76c2.48,2.31,5.76,3.77,9.38,3.89v1.08c-1.14,0.23-2,1.24-2,2.45c0,1.38,1.12,2.5,2.5,2.5   c1.38,0,2.5-1.12,2.5-2.5c0-1.21-0.86-2.22-2-2.45v-1.08c3.62-0.12,6.9-1.58,9.38-3.89l0.76,0.76c-0.27,0.41-0.41,0.88-0.41,1.38   c0,0.67,0.26,1.3,0.73,1.77c0.49,0.49,1.13,0.73,1.77,0.73c0.64,0,1.28-0.24,1.77-0.73c0.97-0.97,0.97-2.56,0-3.54   c-0.86-0.85-2.18-0.96-3.15-0.32l-0.76-0.76c2.31-2.48,3.77-5.76,3.89-9.38h1.08c0.23,1.14,1.24,2,2.45,2c1.38,0,2.5-1.12,2.5-2.5   S43.38,21.5,42,21.5z M35.67,10.21c0.29-0.29,0.68-0.44,1.06-0.44c0.38,0,0.77,0.15,1.06,0.44c0.58,0.58,0.58,1.54,0,2.12   c-0.58,0.58-1.54,0.59-2.12,0c-0.28-0.28-0.44-0.66-0.44-1.06C35.23,10.87,35.38,10.49,35.67,10.21z M12.33,12.33   c-0.58,0.58-1.54,0.58-2.12,0c-0.28-0.28-0.44-0.66-0.44-1.06c0-0.4,0.16-0.78,0.44-1.06s0.66-0.44,1.06-0.44   c0.4,0,0.78,0.16,1.06,0.44C12.92,10.8,12.92,11.75,12.33,12.33z M6,25.5c-0.83,0-1.5-0.67-1.5-1.5s0.67-1.5,1.5-1.5   s1.5,0.67,1.5,1.5S6.83,25.5,6,25.5z M12.33,37.79c-0.57,0.57-1.56,0.57-2.12,0c-0.28-0.28-0.44-0.66-0.44-1.06   c0-0.4,0.16-0.78,0.44-1.06c0.29-0.29,0.68-0.44,1.06-0.44s0.77,0.15,1.06,0.44C12.92,36.25,12.92,37.2,12.33,37.79z M35.67,35.67   c0.29-0.29,0.68-0.44,1.06-0.44c0.38,0,0.77,0.15,1.06,0.44c0.58,0.58,0.58,1.54,0,2.12c-0.59,0.58-1.54,0.58-2.12,0   c-0.28-0.28-0.44-0.66-0.44-1.06C35.23,36.33,35.38,35.95,35.67,35.67z M36.93,20.14c-1.24-1.44-3.17-2.65-5.6-3.48   c-0.83-2.44-2.04-4.36-3.48-5.6C32.2,12.37,35.63,15.8,36.93,20.14z M30.13,16.29c-0.29-0.08-0.6-0.15-0.91-0.22   c-1.37-0.9-2.98-1.46-4.72-1.55v-3.99C26.75,10.81,28.83,12.94,30.13,16.29z M22.5,6c0-0.83,0.67-1.5,1.5-1.5s1.5,0.67,1.5,1.5   S24.83,7.5,24,7.5S22.5,6.83,22.5,6z M23.5,10.53v3.99c-1.74,0.09-3.35,0.64-4.72,1.55c-0.32,0.07-0.62,0.14-0.91,0.22   C19.17,12.94,21.25,10.81,23.5,10.53z M20.14,11.07c-1.44,1.24-2.65,3.17-3.48,5.6c-2.44,0.83-4.36,2.04-5.6,3.48   C12.37,15.8,15.8,12.37,20.14,11.07z M16.29,17.87c-0.08,0.29-0.15,0.59-0.22,0.91c-0.9,1.37-1.46,2.98-1.55,4.72h-3.99   C10.81,21.25,12.94,19.17,16.29,17.87z M14.53,24.5c0.09,1.74,0.64,3.35,1.55,4.72c0.07,0.32,0.14,0.62,0.22,0.91   c-3.35-1.3-5.48-3.38-5.76-5.63H14.53z M11.07,27.86c1.24,1.44,3.17,2.65,5.6,3.48c0.83,2.44,2.04,4.36,3.48,5.6   C15.8,35.63,12.37,32.2,11.07,27.86z M17.87,31.71c0.29,0.08,0.59,0.15,0.91,0.22c1.37,0.9,2.98,1.46,4.72,1.55v3.99   C21.25,37.19,19.17,35.06,17.87,31.71z M25.5,42c0,0.83-0.67,1.5-1.5,1.5s-1.5-0.67-1.5-1.5s0.67-1.5,1.5-1.5S25.5,41.17,25.5,42z    M24,32.5c-1.76,0-3.39-0.54-4.74-1.45c0,0,0,0,0,0c-0.91-0.61-1.69-1.4-2.3-2.3c0,0,0,0,0,0c-0.91-1.36-1.45-2.99-1.45-4.74   c0-1.75,0.53-3.39,1.45-4.74c0,0,0,0,0,0c0.61-0.91,1.4-1.69,2.3-2.3c0,0,0,0,0,0c1.36-0.92,2.99-1.45,4.74-1.45   c4.69,0,8.5,3.81,8.5,8.5S28.69,32.5,24,32.5z M24.5,37.47v-3.99c1.74-0.09,3.35-0.64,4.72-1.55c0.32-0.07,0.62-0.14,0.91-0.22   C28.83,35.06,26.75,37.19,24.5,37.47z M27.86,36.93c1.44-1.24,2.65-3.17,3.48-5.6c2.43-0.83,4.36-2.04,5.6-3.48   C35.63,32.2,32.2,35.63,27.86,36.93z M31.71,30.13c0.08-0.29,0.15-0.59,0.22-0.91c0.9-1.37,1.46-2.98,1.55-4.72h3.99   C37.19,26.75,35.06,28.83,31.71,30.13z M33.47,23.5c-0.09-1.74-0.64-3.35-1.55-4.72c-0.07-0.32-0.14-0.62-0.22-0.91   c3.35,1.3,5.48,3.38,5.76,5.63H33.47z M42,25.5c-0.83,0-1.5-0.67-1.5-1.5s0.67-1.5,1.5-1.5s1.5,0.67,1.5,1.5S42.83,25.5,42,25.5z"></path><path d="M25.5,22c0,0.28,0.22,0.5,0.5,0.5s0.5-0.22,0.5-0.5c0-1.21-0.86-2.22-2-2.45V19c0-0.28-0.22-0.5-0.5-0.5s-0.5,0.22-0.5,0.5   v0.55c-1.14,0.23-2,1.24-2,2.45s0.86,2.22,2,2.45v2.96c-0.58-0.21-1-0.76-1-1.41c0-0.28-0.22-0.5-0.5-0.5s-0.5,0.22-0.5,0.5   c0,1.21,0.86,2.22,2,2.45V29c0,0.28,0.22,0.5,0.5,0.5s0.5-0.22,0.5-0.5v-0.55c1.14-0.23,2-1.24,2-2.45s-0.86-2.22-2-2.45v-2.96   C25.08,20.8,25.5,21.35,25.5,22z M23.5,23.41c-0.58-0.21-1-0.76-1-1.41s0.42-1.2,1-1.41V23.41z M25.5,26c0,0.65-0.42,1.2-1,1.41   v-2.82C25.08,24.8,25.5,25.35,25.5,26z"></path><path d="M28,21.5c-0.28,0-0.5,0.22-0.5,0.5v4c0,0.28,0.22,0.5,0.5,0.5s0.5-0.22,0.5-0.5v-4C28.5,21.72,28.28,21.5,28,21.5z"></path><path d="M20,21.5c-0.28,0-0.5,0.22-0.5,0.5v4c0,0.28,0.22,0.5,0.5,0.5s0.5-0.22,0.5-0.5v-4C20.5,21.72,20.28,21.5,20,21.5z"></path><path d="M24,16.5c-4.14,0-7.5,3.36-7.5,7.5s3.36,7.5,7.5,7.5s7.5-3.36,7.5-7.5S28.14,16.5,24,16.5z M24,30.5   c-3.58,0-6.5-2.92-6.5-6.5s2.92-6.5,6.5-6.5s6.5,2.92,6.5,6.5S27.58,30.5,24,30.5z"></path></g></svg>