<svg xmlns="http://www.w3.org/2000/svg" fill="#2EA8D5" xmlns:xlink="http://www.w3.org/1999/xlink"
    version="1.1"
    x="0px" y="0px" style="enable-background:new 0 0 100 100;" xml:space="preserve"
    viewBox="17.49 5 65.03 90"><path d="M78.84,51.38c0.106-0.647,0.333-2.227,0.333-3.893c0-1.703-0.237-3.314-0.34-3.932c0.103-0.618,0.34-2.229,0.34-3.932  c0-1.809-0.269-3.523-0.358-4.042c-0.086-5.986-11.027-9.215-21.327-9.215c-10.332,0-21.311,3.249-21.33,9.271  c-0.098,0.581-0.348,2.231-0.348,3.977c0,1.703,0.237,3.313,0.34,3.932c-0.103,0.618-0.34,2.229-0.34,3.932  c0,1.686,0.233,3.283,0.337,3.915c-0.104,0.624-0.32,2.107-0.338,3.688c-10.244,0.858-18.322,9.455-18.322,19.918  C17.488,86.027,26.461,95,37.491,95c7.729,0,14.435-4.415,17.764-10.848c0.756,0.032,1.506,0.054,2.233,0.054  c0.356,0,0.704,0,1.057-0.009c0.386-0.009,0.771-0.019,1.148-0.043c0.167-0.002,0.328-0.01,0.509-0.018  c0.035,0,0.069-0.001,0.104-0.003l1.097-0.079c0.286-0.017,0.555-0.042,0.896-0.074c9.748-0.917,16.169-4.327,16.493-8.716  c0.03-0.165,0.383-2.117,0.383-4.189c0-1.737-0.24-3.341-0.344-3.96c0.281-1.752,0.344-3.113,0.344-3.948  c0-0.824-0.063-2.163-0.341-3.934c0.278-1.745,0.341-3.101,0.341-3.934C79.175,53.608,78.939,51.987,78.84,51.38z M50.926,60.222  c2.081,0.276,4.29,0.422,6.563,0.422c4.471,0,8.73-0.559,12.319-1.617c0.795-0.234,1.249-1.068,1.015-1.863  c-0.235-0.794-1.07-1.25-1.863-1.015c-3.317,0.978-7.284,1.495-11.472,1.495c-6.72,0-12.958-1.378-16.28-3.593  c-0.003-0.002-0.006-0.004-0.01-0.006c-1.276-0.859-1.952-1.729-2.028-2.599c0.001-0.024-0.004-0.049-0.004-0.074v-0.013  c0-0.023-0.006-0.044-0.007-0.067c-0.004-0.053-0.003-0.105-0.013-0.158c0-0.001-0.005-0.026-0.006-0.035  c-0.004-0.021-0.006-0.042-0.011-0.063c-0.058-0.34-0.251-1.541-0.305-2.88c0.203,0.159,0.402,0.318,0.635,0.476  c0.258,0.174,0.55,0.257,0.839,0.257c0.481,0,0.954-0.231,1.244-0.66c0.464-0.687,0.284-1.619-0.402-2.083  c-0.719-0.486-1.915-1.459-1.97-2.557c0-0.014,0-0.029,0-0.043c0-0.056-0.008-0.109-0.014-0.164  c-0.004-0.037-0.002-0.074-0.009-0.112c-0.003-0.016-0.255-1.385-0.32-2.946c3.886,3.02,11.43,4.614,18.661,4.614  c7.237,0,14.786-1.596,18.67-4.62c-0.065,1.569-0.318,2.947-0.321,2.963c-0.003,0.018-0.002,0.036-0.005,0.054  c-0.005,0.038-0.008,0.07-0.011,0.107c-0.003,0.036-0.008,0.072-0.008,0.109c-0.017,0.838-0.738,1.773-2.036,2.637  c-3.312,2.224-9.553,3.606-16.288,3.606c-4.679,0-9.166-0.663-12.634-1.868c-0.786-0.273-1.638,0.143-1.909,0.925  c-0.272,0.783,0.142,1.637,0.925,1.909c3.776,1.312,8.613,2.034,13.618,2.034c7.409,0,14.123-1.539,17.955-4.112  c0.262-0.175,0.49-0.351,0.715-0.527c-0.052,1.32-0.238,2.501-0.301,2.866c-0.026,0.111-0.044,0.226-0.044,0.346  c0,0.006,0.002,0.012,0.002,0.018c0,0.005-0.002,0.011-0.002,0.016c-0.012,0.831-0.738,1.771-2.042,2.645  c-0.244,0.164-0.505,0.323-0.782,0.477c-0.723,0.404-0.982,1.318-0.578,2.041c0.274,0.492,0.785,0.769,1.311,0.769  c0.248,0,0.499-0.062,0.73-0.191c0.334-0.187,0.647-0.379,0.944-0.576c0.038-0.024,0.074-0.049,0.11-0.076  c0.236-0.16,0.447-0.322,0.652-0.483c-0.03,0.724-0.111,1.692-0.31,2.91c0,0.001,0,0.002,0,0.002  c-0.022,0.102-0.034,0.207-0.034,0.315c0,0.006,0.002,0.011,0.002,0.017c-0.018,0.82-0.708,1.734-1.95,2.584  c-0.034,0.019-0.067,0.04-0.1,0.062c-3.302,2.219-9.54,3.597-16.278,3.597c-0.851,0-1.659-0.027-2.441-0.067  C53.974,63.464,52.568,61.716,50.926,60.222z M57.488,29.366c11.328,0,18.292,3.642,18.327,6.265  c-0.001,0.018-0.002,0.036-0.002,0.055c-0.059,2.622-7.016,6.251-18.325,6.251c-11.268,0-18.212-3.603-18.32-6.222  c0.001-0.039,0.001-0.078-0.002-0.116C39.258,32.978,46.206,29.366,57.488,29.366z M37.491,92c-9.375,0-17.002-7.627-17.002-17.002  c0-9.375,7.627-17.003,17.002-17.003s17.002,7.627,17.002,17.003C54.493,84.373,46.866,92,37.491,92z M61.955,80.999  c-0.243,0.022-0.48,0.045-0.753,0.062l-1.069,0.076c-0.026,0-0.077,0.002-0.103,0.003c-0.168,0.009-0.33,0.007-0.498,0.018  c-0.347,0.024-0.702,0.032-1.06,0.041c-0.318,0.008-0.629,0.008-0.948,0.008c-0.333-0.001-0.68-0.01-1.024-0.017  c0.503-1.539,0.811-3.16,0.924-4.837c0.022,0,0.042,0.001,0.064,0.001c0.804,0,1.597-0.018,2.377-0.054  c0.828-0.038,1.468-0.74,1.43-1.567c-0.038-0.828-0.751-1.463-1.567-1.43c-0.761,0.035-1.542,0.046-2.319,0.044  c-0.139-1.694-0.494-3.323-1.03-4.872c0.368,0.008,0.731,0.018,1.109,0.018c7.349,0,14.007-1.508,17.851-4.04  c0.029-0.016,0.058-0.034,0.086-0.053c0.018-0.012,0.036-0.025,0.054-0.038c0.248-0.167,0.465-0.336,0.68-0.505  c-0.03,0.724-0.111,1.695-0.31,2.917c-0.022,0.106-0.035,0.215-0.035,0.317c0,0.008,0.002,0.015,0.002,0.023  c-0.035,1.074-1.125,2.023-2.037,2.63c-0.025,0.017-0.049,0.034-0.073,0.052c-0.001,0-0.004,0.002-0.008,0.005  c-2.023,1.332-5.211,2.396-8.975,2.998c-0.818,0.131-1.375,0.9-1.244,1.718c0.118,0.738,0.755,1.263,1.479,1.263  c0.079,0,0.159-0.006,0.239-0.019c4.235-0.677,7.745-1.871,10.131-3.441c0.04-0.024,0.088-0.058,0.138-0.094  c0.256-0.171,0.476-0.344,0.695-0.517c-0.06,1.593-0.319,3.008-0.322,3.024c-0.012,0.065-0.013,0.129-0.016,0.194  c-0.001,0.014-0.005,0.027-0.005,0.041C75.75,77.298,70.57,80.188,61.955,80.999z"></path><path d="M53.47,13.078l3.095-3.095v10.467c0,0.829,0.671,1.5,1.5,1.5s1.5-0.671,1.5-1.5V10.259l2.819,2.819  c0.293,0.293,0.677,0.439,1.061,0.439s0.768-0.146,1.061-0.439c0.586-0.585,0.586-1.536,0-2.121l-5.518-5.518  c-0.586-0.586-1.535-0.586-2.121,0l-5.518,5.518c-0.586,0.585-0.586,1.536,0,2.121C51.935,13.664,52.884,13.664,53.47,13.078z"></path><path d="M34.842,16.618c0.384,0,0.768-0.146,1.061-0.439l3.095-3.094v10.467c0,0.829,0.671,1.5,1.5,1.5s1.5-0.671,1.5-1.5V13.359  l2.819,2.819c0.586,0.586,1.535,0.586,2.121,0c0.586-0.585,0.586-1.535,0-2.121L41.42,8.54C41.139,8.258,40.757,8.1,40.359,8.1  S39.58,8.258,39.299,8.54l-5.518,5.518c-0.586,0.585-0.586,1.536,0,2.121C34.074,16.471,34.458,16.618,34.842,16.618z"></path><path d="M76.555,8.54c-0.586-0.586-1.535-0.586-2.121,0l-5.518,5.518c-0.586,0.585-0.586,1.536,0,2.121  c0.586,0.586,1.535,0.586,2.121,0l3.095-3.095v10.468c0,0.829,0.671,1.5,1.5,1.5s1.5-0.671,1.5-1.5V13.359l2.819,2.819  c0.293,0.293,0.677,0.439,1.061,0.439s0.768-0.146,1.061-0.439c0.586-0.585,0.586-1.536,0-2.121L76.555,8.54z"></path><path d="M40.865,74.06c-0.738-0.535-1.597-0.92-2.483-1.113c-0.346-0.075-0.692-0.11-1.037-0.14  c-0.313-0.027-0.585-0.051-0.778-0.12c-0.919-0.328-1.562-1.24-1.562-2.216c0-1.297,1.055-2.352,2.352-2.352h0.269  c1.297,0,2.352,1.055,2.352,2.352c0,0.884,0.716,1.6,1.6,1.6s1.6-0.716,1.6-1.6c0-2.479-1.634-4.583-3.881-5.294v-1.321  c0-0.884-0.716-1.6-1.6-1.6s-1.6,0.716-1.6,1.6v1.213c-2.455,0.573-4.291,2.775-4.291,5.402c0,2.341,1.481,4.443,3.687,5.23  c0.581,0.207,1.131,0.255,1.574,0.294c0.211,0.019,0.424,0.033,0.637,0.079c0.458,0.1,0.901,0.298,1.283,0.576  c0.743,0.54,1.187,1.35,1.187,2.167c0,1.401-1.14,2.541-2.541,2.541H37.35c-1.401,0-2.541-1.14-2.541-2.541  c0-0.884-0.716-1.6-1.6-1.6s-1.6,0.716-1.6,1.6c0,2.738,1.928,5.03,4.497,5.601v1.723c0,0.884,0.716,1.6,1.6,1.6s1.6-0.716,1.6-1.6  v-1.833c2.351-0.718,4.067-2.907,4.067-5.49C43.373,76.977,42.435,75.199,40.865,74.06z"></path></svg>