<svg xmlns="http://www.w3.org/2000/svg" fill="#2EA8D5" xmlns:xlink="http://www.w3.org/1999/xlink"
    version="1.1"
    x="0px" y="0px" style="enable-background:new 0 0 64 64;" xml:space="preserve"
    viewBox="1 1.01 62 61.99"><g><rect x="41.708" y="18.441" transform="matrix(0.5119 -0.859 0.859 0.5119 4.1452 46.1769)" width="2" height="2"></rect><rect x="45.145" y="20.488" transform="matrix(0.5119 -0.859 0.859 0.5119 4.0635 50.1279)" width="2" height="2"></rect><rect x="38.272" y="16.393" transform="matrix(0.5119 -0.859 0.859 0.5119 4.2266 42.2255)" width="2" height="2"></rect><rect x="11.836" y="23.382" transform="matrix(0.8591 -0.5118 0.5118 0.8591 -10.6475 10.0896)" width="2.328" height="2"></rect><rect x="14.098" y="18.913" transform="matrix(0.8591 -0.5118 0.5118 0.8591 -7.3033 13.2987)" width="12.805" height="2"></rect><path d="M62.875,20.01c-0.265-1.036-0.917-1.907-1.833-2.45L57,15.15V4h-8v6.378L34.372,1.653c-1.433-0.854-3.311-0.854-4.743,0   L2.96,17.559c-0.918,0.544-1.57,1.415-1.834,2.451c-0.265,1.036-0.111,2.112,0.433,3.03C2.276,24.249,3.595,25,5.001,25   c0.717,0,1.422-0.193,2.041-0.561L8,23.869v27.022l-5.823,5.559C1.429,57.163,1,58.166,1,59.199C1,61.295,2.705,63,4.801,63   c1.033,0,2.036-0.429,2.75-1.177L9.291,60H20v3h36v-4v-1V23.869l0.96,0.572C57.577,24.807,58.283,25,59,25   c1.406,0,2.725-0.751,3.441-1.96C62.985,22.122,63.14,21.046,62.875,20.01z M51,6h4v7.957l-4-2.386V6z M6.104,60.442   C5.766,60.797,5.291,61,4.801,61C3.808,61,3,60.192,3,59.199c0-0.49,0.203-0.965,0.558-1.303l20.426-19.498l1.619,1.619   L6.104,60.442z M18,33.586L17.414,33C17.151,32.737,17,32.372,17,32s0.151-0.737,0.414-1L27,21.414C27.263,21.151,27.628,21,28,21   s0.737,0.151,1,0.414L29.586,22L18,33.586z M29,25.414L38.586,35L31,42.586L21.414,33L29,25.414z M50,53H26v-1c0-1.654,1.346-3,3-3   h18c1.654,0,3,1.346,3,3V53z M31,46.586L30.414,46L42,34.414L42.586,35C42.849,35.263,43,35.628,43,36s-0.151,0.737-0.414,1   L33,46.586C32.474,47.112,31.526,47.112,31,46.586z M20,58h-8.8l15.816-16.569L29.586,44l-2,2l1.038,1.038   C26.045,47.234,24,49.372,24,52v1.101C21.721,53.566,20,55.586,20,58z M54,61H22v-3c0-1.654,1.346-3,3-3h26c1.654,0,3,1.346,3,3v1   V61z M54,54.026c-0.584-0.442-1.257-0.773-2-0.924V52c0-2.757-2.243-5-5-5H35.414L44,38.414c0.645-0.645,1-1.502,1-2.414   s-0.355-1.77-1-2.414l-2-2l-2,2L30.414,24l2-2l-2-2c-1.289-1.29-3.539-1.29-4.828,0L16,29.586c-0.645,0.645-1,1.502-1,2.414   s0.355,1.77,1,2.414l2,2l2-2l2.569,2.569L10,48.982V22.677l20.654-12.306c0.813-0.484,1.879-0.484,2.694,0L54,22.677V54.026z    M60.721,22.02c-0.541,0.913-1.83,1.241-2.739,0.702L34.372,8.653C33.655,8.226,32.835,8,32,8s-1.654,0.226-2.371,0.653   L6.021,22.72c-0.915,0.542-2.2,0.212-2.741-0.701c-0.271-0.458-0.348-0.996-0.216-1.514c0.133-0.519,0.458-0.954,0.919-1.228   L30.654,3.371c0.812-0.485,1.879-0.485,2.693,0L60.02,19.279c0.459,0.272,0.785,0.708,0.917,1.226   C61.069,21.023,60.993,21.562,60.721,22.02z"></path><rect x="42" y="57" width="2" height="2"></rect><rect x="46" y="57" width="2" height="2"></rect><rect x="50" y="57" width="2" height="2"></rect><rect x="50" y="36" width="2" height="2"></rect><rect x="50" y="44" width="2" height="2"></rect><rect x="50" y="40" width="2" height="2"></rect></g></svg>