<svg xmlns="http://www.w3.org/2000/svg" fill="#2EA8D5" data-name="Layer 1" x="0px" y="0px"
    viewBox="2 3 60 58">
    <path
        d="M29.29,19.29l-2.82,2.82c-.98-.7-2.18-1.11-3.47-1.11-3.31,0-6,2.69-6,6s2.69,6,6,6,6-2.69,6-6c0-1.29-.42-2.49-1.11-3.47l2.82-2.82-1.41-1.41Zm-6.29,11.71c-2.21,0-4-1.79-4-4s1.79-4,4-4c.74,0,1.42,.22,2.02,.57l-4.23,4.23,1.41,1.41,4.23-4.23c.35,.59,.57,1.28,.57,2.02,0,2.21-1.79,4-4,4Z"></path>
    <path
        d="M23,35c-3.31,0-6,2.69-6,6s2.69,6,6,6,6-2.69,6-6-2.69-6-6-6Zm0,10c-2.21,0-4-1.79-4-4s1.79-4,4-4,4,1.79,4,4-1.79,4-4,4Z"></path>
    <rect x="32" y="28" width="15" height="2"></rect>
    <rect x="32" y="24" width="15" height="2"></rect>
    <rect x="32" y="38" width="15" height="2"></rect>
    <rect x="32" y="42" width="15" height="2"></rect>
    <path
        d="M60,49h-5c-1.1,0-2,.9-2,2v1h-1V22.63c2.72-1.64,8-8.3,8-11.77v-3.81c0-.42-.26-.79-.64-.93l-8-3.05c-.23-.09-.48-.09-.71,0l-8,3.05c-.39,.15-.64,.52-.64,.93v3.81s.01,.1,.01,.14H13c-.55,0-1,.45-1,1V52h-1v-1c0-1.1-.9-2-2-2H4c-1.1,0-2,.9-2,2v4c0,1.1,.9,2,2,2h5c1.1,0,2-.9,2-2v-1h1v6c0,.55,.45,1,1,1H51c.55,0,1-.45,1-1v-6h1v1c0,1.1,.9,2,2,2h5c1.1,0,2-.9,2-2v-4c0-1.1-.9-2-2-2ZM4,55v-4h5v1s-1,0-1,0v2h1v1s-5,0-5,0Zm46-3h-1v-1c0-1.1-.9-2-2-2h-5c-1.1,0-2,.9-2,2v1h-1v-1c0-1.1-.9-2-2-2h-1v2h1v1h-1v2h1v1h-3v2h3c1.1,0,2-.9,2-2v-1h1v1c0,1.1,.9,2,2,2h5c1.1,0,2-.9,2-2v-1h1v5H14v-5h1v1c0,1.1,.9,2,2,2h5c1.1,0,2-.9,2-2v-1h3v1c0,1.1,.9,2,2,2h2v-2h-2v-1h1v-2h-1v-1h3v-2h-3c-1.1,0-2,.9-2,2v1h-3v-1c0-1.1-.9-2-2-2h-5c-1.1,0-2,.9-2,2v1h-1V13h28.48c1.35,3.57,5.29,8.28,7.52,9.63v29.37Zm-8,0v-1h5v1s-1,0-1,0v2h1v1s-5,0-5,0v-1h1v-2h-1Zm-25,0v-1h5v1s-1,0-1,0v2h1v1s-5,0-5,0v-1h1v-2h-1ZM51,20.93c-1.53-.92-7-7.08-7-10.07v-3.12l7-2.67,7,2.67v3.12c0,2.99-5.47,9.15-7,10.07Zm4,34.07v-1h1v-2h-1v-1h5v4s-5,0-5,0Z"></path>
    <polygon points="54 11 52 11 52 9 50 9 50 11 48 11 48 13 50 13 50 15 52 15 52 13 54 13 54 11"></polygon>
</svg>