<svg xmlns="http://www.w3.org/2000/svg" width="60" height="39" viewBox="0 0 60 39" fill="none"><path d="M45.3 39C53.4 39 60 32.4 60 24.2C60 16 53.4 9.4 45.3 9.4C44.1 9.4 43 9.5 42 9.8C45.4 6.8 49.8 5 54.7 5C56 4.9 57 3.8 57 2.5C57 1.1 56 0 54.6 0C41.4 0 30.7 10.6 30.5 23.8C30.5 23.9 30.5 24.1 30.5 24.2C30.5 32.4 37.1 39 45.3 39ZM14.8 39C22.9 39 29.5 32.4 29.5 24.2C29.5 16 22.9 9.4 14.8 9.4C13.6 9.4 12.5 9.5 11.4 9.8C14.8 6.8 19.2 5 24.1 5C25.5 5 26.6 3.9 26.6 2.5C26.6 1.1 25.5 0 24.1 0C10.9 0 0.2 10.6 0 23.8C0 23.9 0 24.1 0 24.2C0 32.4 6.6 39 14.8 39ZM45.3 34.1C39.9 34.1 35.5 29.7 35.5 24.2C35.5 24.1 35.5 24 35.5 23.9C35.6 18.6 40 14.3 45.3 14.3C50.7 14.3 55.1 18.7 55.1 24.2C55.1 29.6 50.7 34.1 45.3 34.1ZM14.8 34.1C9.4 34.1 5 29.7 5 24.2C5 24.1 5 24 5 23.9C5.1 18.6 9.5 14.3 14.8 14.3C20.2 14.3 24.6 18.7 24.6 24.2C24.6 29.6 20.2 34.1 14.8 34.1Z" fill="#00ADEE"></path></svg>