<svg xmlns="http://www.w3.org/2000/svg" fill="#2EA8D5" xmlns:xlink="http://www.w3.org/1999/xlink"
	version="1.1"
	x="0px" y="0px" style="enable-background:new 0 0 512 512;" xml:space="preserve"
	viewBox="25 25 462 462"><style type="text/css"> 	.st0{fill-rule:evenodd;clip-rule:evenodd;} </style><path class="st0" d="M241.889,229.788c-5.012-5.012-9.674-4.666-15.773-4.666c0,3.936-0.253,6.884-3.355,9.986  c-2.059,2.059-4.983,3.354-8.08,3.354h-51.88c-3.146,0-5.992-1.289-8.069-3.366l-0.012,0.012c-3.102-3.102-3.355-6.05-3.355-9.986  c-6.044,0-10.764-0.344-15.735,4.628c-2.855,2.855-4.628,6.79-4.628,11.112v101.526c0,3.314-2.686,6-6,6  c-4.397,0-7.891-0.483-11.316,2.942c-6.366,6.366-1.688,17.057,7.057,17.057c32.365,0,64.729,0,97.094,0  c-33.898-26.107-37.229-76.074-6.914-106.39c9.556-9.557,21.827-16.398,35.555-19.271v-1.864  C246.479,236.558,244.722,232.641,241.889,229.788L241.889,229.788z M184.454,447.56c-3.094-1.152-4.667-4.594-3.516-7.688  c1.152-3.094,4.594-4.668,7.688-3.516c59.617,22.239,126.784,13.569,178.66-23.3c2.692-1.916,6.428-1.286,8.344,1.406  c1.916,2.692,1.286,6.428-1.406,8.344C319.17,461.934,247.83,471.242,184.454,447.56L184.454,447.56z M447.647,327.312  c-1.152,3.093-4.594,4.667-7.688,3.516c-3.094-1.152-4.668-4.594-3.516-7.688c26.309-70.661,8.672-150.196-44.358-203.226  c-75.157-75.157-197.016-75.157-272.172,0C85.087,154.74,63.546,202.855,63.546,256c0,3.314-2.686,6-6,6c-3.314,0-6-2.686-6-6  c0-112.915,91.539-204.454,204.454-204.454c127.327,0,223.726,115.173,201.217,240.753  C455.052,304.373,451.829,316.077,447.647,327.312L447.647,327.312z M60.169,314.903c2.133,7.103,4.782,14.394,7.704,21.251  c1.294,3.042,4.81,4.458,7.851,3.164c3.042-1.294,4.458-4.81,3.164-7.851c-2.8-6.571-5.167-13.073-7.236-19.986  c-0.945-3.171-4.282-4.976-7.453-4.031C61.029,308.394,59.224,311.732,60.169,314.903L60.169,314.903z M141.258,413.736  c3.197-0.854,6.482,1.045,7.336,4.242c0.854,3.197-1.045,6.482-4.242,7.336l-20.382,5.462  c86.897,65.732,209.458,57.51,286.887-19.918c85.524-85.524,85.524-224.19,0-309.714s-224.19-85.524-309.714,0  C61.513,140.774,37,195.524,37,256c0,3.314-2.686,6-6,6s-6-2.686-6-6C25,128.424,128.424,25,256,25s231,103.424,231,231  S383.576,487,256,487c-48.874,0-95.618-15.272-134.603-43.282l5.931,22.134c0.854,3.197-1.045,6.482-4.242,7.336  c-3.197,0.854-6.482-1.045-7.336-4.242l-10.544-39.351c-0.854-3.197,1.045-6.482,4.242-7.336L141.258,413.736L141.258,413.736z   M34.741,322.553c2.417,8.046,5.396,16.247,8.703,24.009c1.294,3.042,4.81,4.458,7.851,3.164c3.042-1.294,4.458-4.81,3.164-7.851  c-3.18-7.463-5.888-14.899-8.235-22.744c-0.945-3.171-4.282-4.976-7.453-4.031C35.601,316.045,33.797,319.382,34.741,322.553  L34.741,322.553z M311.027,236.149v4.651c0,3.314,2.686,6,6,6c3.314,0,6-2.686,6-6v-4.651c0-3.314-2.686-6-6-6  C313.714,230.149,311.027,232.835,311.027,236.149L311.027,236.149z M254.799,283.768c0-3.314,2.686-6,6-6c3.314,0,6,2.686,6,6  v4.918h3.855c3.314,0,6,2.686,6,6s-2.686,6-6,6h-14.557c-3.591,0-3.591,5.468,0,5.468h8.302c13.001,0,19.72,15.835,10.41,25.145  c-2.131,2.131-4.91,3.616-8.011,4.128v5.114c0,3.314-2.686,6-6,6c-3.314,0-6-2.686-6-6v-4.918h-7.049c-3.314,0-6-2.686-6-6  c0-3.314,2.686-6,6-6h16.65c3.591,0,3.591-5.468,0-5.468c-2.768,0-5.535,0-8.302,0c-13.001,0-19.72-15.835-10.411-25.145  c2.38-2.38,5.57-3.955,9.112-4.267V283.768L254.799,283.768z M261.082,262.371c27.493,0,49.783,22.291,49.783,49.784  c0,27.493-22.291,49.783-49.783,49.783c-27.493,0-49.783-22.291-49.783-49.783C211.298,284.662,233.589,262.371,261.082,262.371  L261.082,262.371z M287.799,285.437c14.755,14.755,14.754,38.681,0,53.435c-14.755,14.755-38.68,14.755-53.435,0  c-14.755-14.755-14.754-38.681,0-53.435C249.118,270.683,273.045,270.682,287.799,285.437L287.799,285.437z M241.621,380.386  H120.744c-19.388,0-29.456-23.626-15.541-37.541c3.599-3.599,8.435-5.965,13.8-6.389v-95.595c0-15.269,12.471-27.74,27.74-27.74  h4.623c0-3.937,0.253-6.885,3.355-9.986c3.612-3.612,7.135-3.354,11.51-3.354l-21.726-55.141c-1.747-4.454,2.295-9.557,7.654-7.796  l37.308,10.746l36.22-10.872c4.739-1.417,9.209,3.264,7.217,8.104l-21.654,54.96c4.429,0,7.865-0.269,11.5,3.366l0.012-0.012  c3.102,3.102,3.355,6.05,3.355,9.986c5.284,0,8.798-0.238,13.985,1.633v-53.611c0-3.314,2.686-6,6-6H389.03c3.314,0,6,2.686,6,6  v103.429c5.61,0,10.2-0.668,14.546,3.679c2.27,2.27,3.679,5.407,3.679,8.861v22.425c0,2.394-0.676,4.635-1.847,6.54  c1.171,1.906,1.847,4.147,1.847,6.54v22.425c0,2.386-0.682,4.626-1.863,6.537c1.18,1.908,1.863,4.151,1.863,6.544v22.425  c0,6.909-5.631,12.54-12.54,12.54H317.09c-6.905,0-12.54-5.66-12.54-12.54v-2.337C286.915,381.907,263.565,386.634,241.621,380.386  L241.621,380.386z M316.55,356.371l0.072,14.466l0.468,0.252h83.624l0.54-0.54l-0.084-22.725l-0.456-0.24h-78.168  C320.766,350.667,318.759,353.604,316.55,356.371L316.55,356.371z M328.055,335.584h72.66c0.143,0,0.277-0.063,0.377-0.163  l0.012,0.012l0.151-0.389v-22.425l-0.54-0.54h-68.699C332.077,320.145,330.573,328.388,328.055,335.584L328.055,335.584z   M330.991,300.079h69.723l0.54-0.54v-22.425l-0.54-0.54h-78.256C326.606,283.713,329.544,291.641,330.991,300.079L330.991,300.079z   M314.041,264.964c0.988-0.255,2.01-0.39,3.049-0.39h40.709v-44.171c-13.106-2.452-23.436-12.781-25.887-25.887H303.22  c-2.452,13.106-12.781,23.436-25.887,25.887v22.688C291.724,246.465,304.471,254.229,314.041,264.964L314.041,264.964z   M265.332,241.346v-26.389c0-3.314,2.686-6,6-6c11.291,0,20.441-9.15,20.441-20.442c0-3.314,2.686-6,6-6h39.584c3.314,0,6,2.686,6,6  c0,11.291,9.151,20.442,20.442,20.442c3.314,0,6,2.686,6,6v49.616h13.23v-97.429H252.102v56.062  c0.306,0.849,6.378,6.428,6.378,18.061L265.332,241.346L265.332,241.346z M302.755,270.48c23.015,23.015,23.014,60.333,0,83.348  c-23.014,23.014-60.333,23.015-83.348,0c-23.015-23.014-23.014-60.333,0-83.348C242.422,247.466,279.741,247.466,302.755,270.48  L302.755,270.48z M179.104,199.781h19.273l18.926-48.035l-26.055,7.82l-0.005-0.018c-1.055,0.316-2.209,0.343-3.346,0.018  l-27.791-8.005L179.104,199.781L179.104,199.781z M214.116,211.781v14.681h-50.75v-14.681H214.116z"></path></svg>