<svg xmlns="http://www.w3.org/2000/svg" fill="#2EA8D5" xmlns:xlink="http://www.w3.org/1999/xlink"
    version="1.1"
    x="0px" y="0px" style="enable-background:new 0 0 512 512;" xml:space="preserve"
    viewBox="67.62 25.02 376.75 461.99"><path d="M101.6,256.2l24.5-22.6c13.1-12.1,28.6-18.6,46.4-18.6l141.6-0.5c14.7-0.1,27.4-5.4,38.2-15.4l47.6-44.1  c2.4-2.2,6.2-2.1,8.4,0.3l7.3,7.9l14.1-55.5l-56.4,9.8l7.3,7.9c2.2,2.4,2.1,6.2-0.3,8.4l-34.1,31.5c-13,12-28.4,18.6-46.3,18.6  l-141.6,0.5c-14.7,0.1-27.4,5.4-38.2,15.4l-38,35.2L101.6,256.2z M131.9,244.5L105.4,269c-2.4,2.2-6.2,2.1-8.4-0.3l-27.8-30  c-2.2-2.4-2.1-6.2,0.3-8.4l42.4-39.2c13.1-12.1,28.6-18.6,46.3-18.6l23.3-0.1l17.4-19c-17.7-5.6-23.6-28.1-10.2-41.6  c4.5-4.5,10.8-7.3,17.7-7.3h2.6L185.8,80c-7.5-7.9-11.2-17.7-3.3-25c9-8.2,28.6-7,42-3.7c7.9-25.7,38.3-35,57.8-16.8  c4.7,4.5,8.4,10.2,10.4,16.8c13.4-3.3,33-4.6,42,3.7c7.9,7.3,4.2,17.1-3.3,25l-23.1,24.3h2.6c22.1,0,33.5,26.9,17.7,42.7  c-2.8,2.8-6.3,5-10.2,6.2l9.8,10.7c3.5-2.1,6.7-4.6,9.9-7.5l29.7-27.5l-10.3-11.2c-3.8-3.8-1.6-9.5,3-10.3l76.1-13.2  c4.6-0.9,8.1,3.2,7.1,7.3l-19.1,75.1h0c-1.2,4.5-6.9,6.1-10.2,2.6l-10.7-11.6L363,205.3c16.8,23,29.8,48.6,29.8,77.5  c0,24.6-6.6,47.7-18.3,67.6c9.2-2.3,19.7-1.5,26.2,4.4c2.7,2.5,4.4,5.6,4.8,9.2c13-4.6,28.9-3.3,35.9,6c6.5,8.7,1.8,19.1-8.9,26.2  c-5.5,3.7-13,8.8-21.7,14.8c-36.1,24.7-92.2,63.2-113,69c-6.5,1.8-120.7-0.5-148.2-0.5c-2.3,4.6-7.2,7.6-12.6,7.5  c-11.1-0.1-22.3,0-33.4-0.3c-7.7-0.1-13.6-6.7-13.5-14.1c0.4-31.3,1-62.5,1.6-93.8c0.1-7.7,6.4-13.4,14-13.4  c11.1,0.1,22.3,0,33.4,0.3c6,0.1,11.1,4.2,12.8,9.8l5.2-4.7c-21-24.2-32.8-55.3-32.8-87.9C124.3,269.5,127.1,256.7,131.9,244.5  L131.9,244.5z M197.7,172.2l102.1-0.4c5.9,0,11.5-0.9,16.9-2.6l-13.6-14.8h-89.1L197.7,172.2z M353.9,213.1  c-10.6,7.9-22.5,12.3-35.7,13.1c35.2,33.7,36.1,89.8,1.4,124.4c-16.8,16.8-40.2,26.6-65.7,25.4c-0.8,0-1.6-0.1-2.4-0.1  c-8.5,4.6-16.1,8.9-21.9,12.6c-3,1.9-5.4,3.3-7.2,4.3c5.8,0.4,17.8,0.9,32.2,2.4c14.1,1.4,29.7,2.7,43.5,3.4  c20.6-7.1,38.6-19.4,52.6-35.5l7-8.8c14.5-20.1,23-44.8,23-71.4C380.8,257,369,233.9,353.9,213.1L353.9,213.1z M299.4,226.4l-83,0.3  c-10,6.7-18.3,15.7-24.1,26.4c-15.9,28.9-10.9,64.9,12.2,88.5c10.8-7.3,20.1-15.1,34.1-20.4c-2.9-4-4.6-8.8-4.6-14c0-3.3,2.7-6,6-6  s6,2.7,6,6c0,2.5,0.7,4.8,2,6.7c1.1,1.6,2.5,2.9,4.2,3.9c4.1-0.5,7.9-0.4,11.3,0.2c1.8-0.9,3.3-2.2,4.5-3.9c1.4-2,2.2-4.4,2.2-7  c0-9-6.7-10.7-13.5-12.3c-11.3-2.7-22.7-5.4-22.7-23.9c0-11.1,7.6-20.6,18.1-23.3v-6.8c0-3.3,2.7-6,6-6c3.3,0,6,2.7,6,6v6.8  c10.5,2.7,18.1,12.2,18.1,23.3c0,3.3-2.7,6-6,6c-3.3,0-6-2.7-6-6c0-10.7-13.1-16.1-20.6-8.5c-2.2,2.2-3.5,5.2-3.5,8.5  c0,9,6.7,10.7,13.5,12.3c11.3,2.7,22.7,5.4,22.7,23.9c0,6.2-2.4,12-6.4,16.4c11.9,10,9.9,27.6-2.2,39  c49.3-10.4,74.5-65.8,50.2-109.7C318,242.2,309.6,233.1,299.4,226.4L299.4,226.4z M197.5,226.8l-25,0.1c-7.2,0-14,1.3-20.4,3.9  c-0.2,0.1-0.3,0.1-0.5,0.2c-4.5,7.9-8.2,16-10.9,24.4c-2.8,8.8-4.4,17.9-4.4,27.4c0,29.8,10.7,58,29.9,80.1c8.2-6.7,16.5-12,26-14.8  c0.5-0.1,1-0.3,1.5-0.5C162.2,312.9,163.9,259.5,197.5,226.8L197.5,226.8z M152.5,390.8c-0.3,25.5-0.9,51.1-1.3,76.7  c27.2,0.1,137.3,2,144,0.8c19.2-5.6,73.8-43.1,108.9-67.2c8.7-6,16.2-11.1,21.8-14.9c6.3-4.2,9.3-8.4,2.8-11.4  c-5.2-2.4-13.5-2.4-22.3,1.6l-68.6,32.1c-11.4,5.3-66.3,0.2-84.3-1.6c-16.3-1.7-30.7-4.1-38.9-6.4c-2.7,0.7-5.6-0.7-6.8-3.3  c-2.7-5.8,5.3-12.5,15.6-18.9c8.5-5.3,19.9-11.6,32.3-18.1c0.1-0.1,0.3-0.2,0.5-0.3c26.8-12.1,18.3-42.9-18.7-25.2  c-16.3,7.8-28.3,20.8-41.8,24.8c-15.8,4.7-29,19.2-42.5,30.8C152.9,390.5,152.7,390.7,152.5,390.8L152.5,390.8z M138.9,377.6  l-33.2-0.3c-1,0-2,0.6-2,1.6l-1.6,93.7c0,1,0.8,2.1,1.8,2.1l33.2,0.3c1,0,2-0.6,2-1.6l1.6-93.7C140.7,378.8,140,377.6,138.9,377.6  L138.9,377.6z M326.2,398.8c3.3-0.2,5.6-0.5,6.6-1l58.5-27.4c1.8-2.2,2.5-3.9,2.4-5.2c-0.5-4-13.1-7.1-26.1,1l-8.1,5  C350,382.1,338.7,391.4,326.2,398.8L326.2,398.8z M225.4,104.3h66.4l31-32.6c2.6-2.7,5.4-6.5,3.9-7.9c-1-0.9-2.8-1.7-5.1-2.2  c-7.8-1.8-19.8-0.9-31.4,2.9l0,0c-3.5,1.1-7.3-1.2-7.8-5c-2.6-20.3-24.9-29.7-39.2-16.2c-4.3,4-7.3,9.7-8.1,16  c-0.4,4-4.2,6.3-7.8,5.2c-11.7-3.7-23.6-4.7-31.4-2.9c-2.1,0.5-5.8,1.7-5.6,3.4c0.2,1.6,1.5,3.8,4.3,6.8L225.4,104.3z M310.8,116.3  H206.4c-11.4,0-17.5,13.9-9.2,22.3c2.4,2.4,5.6,3.8,9.2,3.8h104.5c11.4,0,17.5-13.9,9.2-22.2C317.7,117.8,314.4,116.3,310.8,116.3  L310.8,116.3z"></path></svg>