<svg xmlns="http://www.w3.org/2000/svg" fill="#2EA8D5" data-name="Layer 1" x="0px" y="0px"
    viewBox="22 0 84 127.9">
    <title>solid</title>
    <path d="M63,48h1.9a2,2,0,0,0,2-2,2,2,0,0,0-2-2H62.92A2,2,0,0,0,63,48Z"></path>
    <path
        d="M81.3,52.16a2,2,0,0,0,1.82-3.56q-.93-.48-1.89-.91a2,2,0,0,0-1.64,3.65Q80.46,51.73,81.3,52.16Z"></path>
    <path d="M54.6,49.17q.91-.23,1.85-.42a2,2,0,0,0-.79-3.92q-1,.21-2,.46a2,2,0,1,0,1,3.88Z"></path>
    <path
        d="M86.52,52.88a2,2,0,0,0,.39,2.8q.76.57,1.48,1.18A2,2,0,1,0,91,53.8q-.8-.67-1.64-1.3A2,2,0,0,0,86.52,52.88Z"></path>
    <path
        d="M73.35,49.16a2,2,0,0,0,.49.06,2,2,0,0,0,.49-3.94q-1-.25-2-.46a2,2,0,0,0-.79,3.92Q72.43,48.93,73.35,49.16Z"></path>
    <path d="M97.8,68.62q.43.84.82,1.7a2,2,0,0,0,3.64-1.66q-.43-1-.91-1.88a2,2,0,1,0-3.55,1.83Z"></path>
    <path
        d="M49.35,48.71a2,2,0,0,0-2.65-1q-1,.43-1.88.91a2,2,0,1,0,1.83,3.56q.84-.43,1.7-.82A2,2,0,0,0,49.35,48.71Z"></path>
    <path d="M100.82,76.56q.23.91.42,1.84a2,2,0,0,0,3.92-.79q-.21-1-.47-2a2,2,0,1,0-3.87,1Z"></path>
    <path
        d="M94.26,63a2,2,0,1,0,3.18-2.42q-.63-.83-1.31-1.63a2,2,0,0,0-3.06,2.58Q93.69,62.26,94.26,63Z"></path>
    <path
        d="M38.28,57.36a2,2,0,0,0,1.29-.47q.72-.61,1.48-1.18a2,2,0,0,0-2.42-3.19q-.84.63-1.64,1.31a2,2,0,0,0,1.29,3.53Z"></path>
    <path
        d="M30.9,63.44a2,2,0,0,0,2.8-.38q.57-.76,1.18-1.48A2,2,0,1,0,31.82,59q-.67.8-1.31,1.64A2,2,0,0,0,30.9,63.44Z"></path>
    <path
        d="M24.39,80a2,2,0,0,0,.4,0,2,2,0,0,0,2-1.61c.12-.62.26-1.24.42-1.84a2,2,0,0,0-3.88-1q-.26,1-.46,2A2,2,0,0,0,24.39,80Z"></path>
    <path
        d="M26.71,71.37a2,2,0,0,0,2.65-1q.39-.86.82-1.71a2,2,0,0,0-3.56-1.83q-.48.93-.91,1.89A2,2,0,0,0,26.71,71.37Z"></path>
    <path
        d="M106,85a2,2,0,0,0-2-2h-.05A2,2,0,0,0,102,85c0,.32,0,.63,0,1a38,38,0,0,1-76,0c0-.32,0-.63,0-1a2,2,0,0,0-4-.1c0,.35,0,.7,0,1a42,42,0,0,0,84,0C106,85.65,106,85.3,106,85Z"></path>
    <path
        d="M54,33a2,2,0,0,0-2,2v6a2,2,0,0,0,4,0V37H72v4a2,2,0,0,0,4,0V35a2,2,0,0,0-2-2H69.5V24.73a5.5,5.5,0,1,0-11,0V33Zm8.5-8.27a1.52,1.52,0,1,1,3,0V33h-3Z"></path>
    <path d="M64,15a2,2,0,0,0,2-2V2a2,2,0,0,0-4,0V13A2,2,0,0,0,64,15Z"></path>
    <path d="M40.5,25h11a2,2,0,0,0,0-4h-11a2,2,0,0,0,0,4Z"></path>
    <path d="M74.5,23a2,2,0,0,0,2,2h10a2,2,0,0,0,0-4h-10A2,2,0,0,0,74.5,23Z"></path>
    <path d="M49.25,12.56l5,4a2,2,0,0,0,2.5-3.12l-5-4a2,2,0,0,0-2.5,3.12Z"></path>
    <path d="M72.5,17a2,2,0,0,0,1.25-.44l5-4a2,2,0,0,0-2.5-3.12l-5,4A2,2,0,0,0,72.5,17Z"></path>
    <path
        d="M80.64,62.36a2,2,0,0,0-2.78.5L66.34,79.41a7,7,0,1,0,3.23,2.36L81.14,65.14A2,2,0,0,0,80.64,62.36Zm-14,25a3,3,0,0,1-1.74,1.49A3,3,0,0,1,64,89a3,3,0,1,1,2.68-1.64Z"></path>
    <path
        d="M92,87.08q0-.54,0-1.08a2,2,0,0,0-4,0q0,.46,0,.92A2,2,0,0,0,89.9,89H90A2,2,0,0,0,92,87.08Z"></path>
    <path
        d="M76.81,106.3c-.52.33-1.06.64-1.61.93a2,2,0,0,0,1.87,3.54c.64-.34,1.27-.71,1.88-1.09a2,2,0,0,0-2.14-3.38Z"></path>
    <path
        d="M87.32,97.68a2,2,0,0,0,2.61-1.09c.27-.67.52-1.36.74-2a2,2,0,1,0-3.81-1.22c-.19.59-.4,1.18-.64,1.75A2,2,0,0,0,87.32,97.68Z"></path>
    <path
        d="M83.26,105.47a2,2,0,0,0,1.48-.66c.49-.54,1-1.1,1.39-1.66A2,2,0,1,0,83,100.7c-.38.48-.78,1-1.2,1.43a2,2,0,0,0,1.48,3.34Z"></path>
    <path
        d="M43.28,104.84a2,2,0,1,0,3-2.69c-.42-.46-.82-.94-1.2-1.42a2,2,0,0,0-3.16,2.46C42.33,103.75,42.8,104.3,43.28,104.84Z"></path>
    <path
        d="M49.09,109.7c.61.39,1.25.75,1.88,1.08a2,2,0,1,0,1.87-3.54c-.54-.29-1.09-.6-1.62-.93a2,2,0,0,0-2.13,3.39Z"></path>
    <path
        d="M69.1,109.46c-.6.13-1.21.24-1.83.32a2,2,0,0,0,.27,4l.27,0c.72-.1,1.44-.22,2.14-.38a2,2,0,1,0-.85-3.91Z"></path>
    <path
        d="M58.09,113.38c.71.15,1.43.28,2.14.37l.27,0a2,2,0,0,0,.26-4c-.61-.08-1.22-.19-1.83-.32a2,2,0,0,0-.84,3.91Z"></path>
    <path
        d="M41.15,93.36a2,2,0,0,0-3.81,1.22c.22.68.47,1.37.75,2a2,2,0,1,0,3.7-1.52C41.55,94.53,41.34,93.94,41.15,93.36Z"></path>
    <path d="M38,89h.08A2,2,0,0,0,40,86.92q0-.46,0-.92a2,2,0,0,0-4,0q0,.54,0,1.08A2,2,0,0,0,38,89Z"></path>
</svg>