<svg xmlns="http://www.w3.org/2000/svg" fill="#2EA8D5" data-name="Layer 1" x="0px" y="0px"
    viewBox="0 3.77 47.99 40.46">
    <title>Oil and Petroleum_expand</title>
    <path
        d="M37.949,30.834a2.064,2.064,0,0,0-.679-1.526V23.879a.75.75,0,1,0-1.5,0v4.877H12.3a2.071,2.071,0,0,0-1.4,3.6v8.269a2.07,2.07,0,0,0,1.4,3.6H35.872a2.07,2.07,0,0,0,1.4-3.6V32.36A2.064,2.064,0,0,0,37.949,30.834ZM12.4,40.078V32.911H35.77v7.167Zm-.1-9.822H35.872a.578.578,0,0,1,0,1.155H12.3a.578.578,0,0,1,0-1.155ZM35.872,42.732H12.3a.577.577,0,0,1,0-1.154H35.872a.577.577,0,0,1,0,1.154Z"></path>
    <path
        d="M10.221,19.513a2.064,2.064,0,0,0,.679,1.526v2.84a.75.75,0,0,0,1.5,0V21.59h3.56a.75.75,0,0,0,0-1.5H12.3a.578.578,0,0,1,0-1.155H34.99a.75.75,0,0,0,0-1.5H12.4V10.269H35.77v6.522a.75.75,0,1,0,1.5,0V9.717a2.07,2.07,0,0,0-1.4-3.6H19.065V4.991a1.224,1.224,0,0,0-1.223-1.223H14.754A1.224,1.224,0,0,0,13.53,4.991V6.114H12.3a2.07,2.07,0,0,0-1.4,3.6v8.269A2.064,2.064,0,0,0,10.221,19.513ZM15.03,5.268h2.535v.846H15.03ZM12.3,7.614H35.872a.578.578,0,0,1,0,1.155H12.3a.578.578,0,0,1,0-1.155Z"></path>
    <path d="M25.038,20.09a.75.75,0,0,0,0,1.5H31a.75.75,0,0,0,0-1.5Z"></path>
    <path
        d="M47.987,13.158a.732.732,0,0,0-.1-.468.283.283,0,0,0-.017-.04l0,0c-.006-.008-.007-.019-.013-.028a.752.752,0,0,0-.133-.112.693.693,0,0,0-.083-.071.728.728,0,0,0-.151-.059.833.833,0,0,0-.138-.039c-.018,0-.033-.013-.051-.014l-3.453-.191a.75.75,0,0,0-.083,1.5l1.265.07L26.773,26.3l-4.932-6.344a.749.749,0,0,0-1.016-.158L.326,33.859A.75.75,0,0,0,1.174,35.1L21.09,21.438l4.933,6.345a.751.751,0,0,0,1.019.157L46.116,14.771l-.328,1.5a.75.75,0,1,0,1.465.32l.734-3.36c0-.007,0-.014,0-.02A.5.5,0,0,0,47.987,13.158Z"></path>
</svg>