<svg xmlns="http://www.w3.org/2000/svg" fill="#2EA8D5" data-name="Layer 1" x="0px" y="0px"
    viewBox="5.91 5 88.19 90">
    <defs>
        <style>.cls-1{fill-rule:evenodd;}</style>
    </defs>
    <title>a</title>
    <path class="cls-1"
        d="M37.509,36.57a1.36,1.36,0,0,1-2.354,1.364l-3.066-5.31a1.36,1.36,0,1,1,2.354-1.364l3.066,5.31Zm4.374-2.461L40.3,28.187a1.362,1.362,0,0,0-2.631.7l1.587,5.922a1.362,1.362,0,1,0,2.631-.7ZM47,34.76a1.364,1.364,0,1,1-2.727,0V28.629a1.364,1.364,0,1,1,2.727,0V34.76Zm4.513,14.981A2.691,2.691,0,0,0,48.816,54.4v0a2.692,2.692,0,0,0,2.693-4.663Zm-2.749-2.9a5.412,5.412,0,1,1-1.3,9.91l0,0a5.415,5.415,0,0,1,1.307-9.913Zm14.63,3.324a1.7,1.7,0,0,0,1.649-.841h0A1.7,1.7,0,0,0,62.567,47.1a13.486,13.486,0,0,1,.822,3.064Zm-17.346-8.01,1.361-.364A10.641,10.641,0,1,1,40.121,55.61a6.273,6.273,0,0,0-3.059-3.567c-2.85-1.525-6.44-1.018-9.707.059a1.364,1.364,0,0,0-.877,1.693l.214.8-2.519.675L22.361,48.5l16.412-4.4,3.706,3.93a1.363,1.363,0,0,0,2.315-.619h0l1.247-5.26Zm-5.8-.46a1.363,1.363,0,0,0-1.389-.433l-18.511,4.96a1.363,1.363,0,0,0-.964,1.668L21.9,57.288a1.362,1.362,0,0,0,1.667.964l5.15-1.38a1.362,1.362,0,0,0,.964-1.667l-.237-.884a13.774,13.774,0,0,1,3.285-.517c2.135-.038,4.116.669,4.829,2.7A13.366,13.366,0,0,0,63.5,52.9a4.417,4.417,0,0,0,3.892-2.209l0,0a4.416,4.416,0,0,0-6.089-6,13.375,13.375,0,0,0-14.6-5.523l-2.088.56a1.363,1.363,0,0,0-1.036,1.018l-.851,3.592L40.241,41.7ZM70.634,23.517h18.02V18.565a9.01,9.01,0,1,0-18.02,0v4.952Zm1.808,12.205H66.556a1.364,1.364,0,0,1-1.364-1.364V24.88a1.364,1.364,0,0,1,1.364-1.363h1.351V23.3c-7.126-1.871-17.937-5-24.451-8.426-7.519,3.952-20.8,7.553-28.986,9.583V49.189A39.425,39.425,0,0,0,25.227,76.763a37.135,37.135,0,0,0,9.294,7.061,20.615,20.615,0,0,0,8.935,2.616,20.615,20.615,0,0,0,8.935-2.616,37.154,37.154,0,0,0,9.294-7.061A39.43,39.43,0,0,0,72.442,49.189V35.722Zm5.839,0H75.169V49.189A42.165,42.165,0,0,1,63.656,78.638a39.932,39.932,0,0,1-10,7.594,23.268,23.268,0,0,1-10.181,2.925h-.043a23.271,23.271,0,0,1-10.181-2.925,39.945,39.945,0,0,1-10-7.594A42.166,42.166,0,0,1,11.742,49.189v-25.8h0a1.362,1.362,0,0,1,1.036-1.321c8.019-1.97,22.7-5.863,30.006-9.929a1.361,1.361,0,0,1,1.324-.007c6.172,3.395,16.991,6.547,23.8,8.353a31.952,31.952,0,0,1,.072-3.225c-7.974-2.145-19.251-5.507-24.523-9.192-6.78,4.738-23.878,9.182-34.825,11.8V49.189A45.386,45.386,0,0,0,18.724,78.208C26.039,87.193,35.9,92.173,43.456,92.279c7.56-.106,17.416-5.086,24.732-14.071A45.392,45.392,0,0,0,78.281,49.189V35.722Zm14.452,0A1.364,1.364,0,0,0,94.1,34.358V24.88a1.363,1.363,0,0,0-1.363-1.363H91.381V18.565A11.735,11.735,0,0,0,68.6,14.611c-7.5-2.019-19.8-5.637-24.277-9.3a1.363,1.363,0,0,0-1.736.008c-5.69,4.7-25.168,9.691-35.625,12.145a1.362,1.362,0,0,0-1.053,1.326h0v30.4a48.09,48.09,0,0,0,10.71,30.734C24.454,89.552,35.159,94.888,43.44,95h.046c8.278-.115,18.976-5.45,26.811-15.073A48.085,48.085,0,0,0,81.008,49.189V35.722ZM67.919,32.995V26.244h23.45v6.751ZM84.564,17.653a1.358,1.358,0,0,1,2.6-.788,13.475,13.475,0,0,1,.429,4.5,1.364,1.364,0,1,1-2.727,0,12.066,12.066,0,0,0-.3-3.708ZM81.377,13.6a1.36,1.36,0,0,1,1.4-2.334,10.128,10.128,0,0,1,1.593,1.181,1.361,1.361,0,0,1-1.833,2.013A7.012,7.012,0,0,0,81.377,13.6Z"></path>
</svg>