<svg xmlns="http://www.w3.org/2000/svg" xmlns:xlink="http://www.w3.org/1999/xlink" width="500"
    zoomAndPan="magnify" viewBox="0 0 375 374.999991" height="500"
    preserveAspectRatio="xMidYMid meet" version="1.0">
    <defs>
        <g />
    </defs>
    <rect x="-37.5" width="450" y="-37.499999" height="449.999989" fill-opacity="1" />
    <rect x="-37.5" width="450" y="-37.499999" height="449.999989" fill-opacity="1" />
    <g fill="#161717" fill-opacity="1">
        <g transform="translate(0.0000045, 230.780526)">
            <g>
                <path
                    d="M 2.46875 -20.859375 L 7.296875 -20.859375 L 7.296875 -3.9375 L 17.765625 -3.9375 L 17.765625 0 L 2.46875 0 Z M 2.46875 -20.859375 " />
            </g>
        </g>
    </g>
    <g fill="#161717" fill-opacity="1">
        <g transform="translate(37.13165, 230.780526)">
            <g>
                <path
                    d="M 16.203125 -4.46875 L 6.53125 -4.46875 L 4.671875 0 L -0.265625 0 L 9.03125 -20.859375 L 13.796875 -20.859375 L 23.125 0 L 18.0625 0 Z M 14.6875 -8.140625 L 11.375 -16.125 L 8.078125 -8.140625 Z M 14.6875 -8.140625 " />
            </g>
        </g>
    </g>
    <g fill="#161717" fill-opacity="1">
        <g transform="translate(79.09025, 230.780526)">
            <g>
                <path
                    d="M 34 -20.859375 L 27.171875 0 L 21.984375 0 L 17.40625 -14.125 L 12.65625 0 L 7.515625 0 L 0.65625 -20.859375 L 5.65625 -20.859375 L 10.375 -6.203125 L 15.28125 -20.859375 L 19.75 -20.859375 L 24.515625 -6.078125 L 29.375 -20.859375 Z M 34 -20.859375 " />
            </g>
        </g>
    </g>
    <g fill="#161717" fill-opacity="1">
        <g transform="translate(132.877872, 230.780526)">
            <g />
        </g>
    </g>
    <g fill="#161717" fill-opacity="1">
        <g transform="translate(160.444992, 230.780526)">
            <g>
                <path
                    d="M 16.5625 -10.75 L 20.984375 -10.75 L 20.984375 -2.296875 C 19.847656 -1.441406 18.535156 -0.785156 17.046875 -0.328125 C 15.554688 0.128906 14.054688 0.359375 12.546875 0.359375 C 10.378906 0.359375 8.429688 -0.0976562 6.703125 -1.015625 C 4.972656 -1.941406 3.613281 -3.222656 2.625 -4.859375 C 1.644531 -6.503906 1.15625 -8.359375 1.15625 -10.421875 C 1.15625 -12.492188 1.644531 -14.347656 2.625 -15.984375 C 3.613281 -17.617188 4.984375 -18.898438 6.734375 -19.828125 C 8.484375 -20.753906 10.453125 -21.21875 12.640625 -21.21875 C 14.460938 -21.21875 16.117188 -20.910156 17.609375 -20.296875 C 19.097656 -19.679688 20.347656 -18.785156 21.359375 -17.609375 L 18.265625 -14.75 C 16.773438 -16.320312 14.976562 -17.109375 12.875 -17.109375 C 11.539062 -17.109375 10.359375 -16.828125 9.328125 -16.265625 C 8.296875 -15.710938 7.488281 -14.925781 6.90625 -13.90625 C 6.332031 -12.894531 6.046875 -11.734375 6.046875 -10.421875 C 6.046875 -9.128906 6.332031 -7.976562 6.90625 -6.96875 C 7.488281 -5.957031 8.289062 -5.164062 9.3125 -4.59375 C 10.332031 -4.03125 11.5 -3.75 12.8125 -3.75 C 14.195312 -3.75 15.445312 -4.046875 16.5625 -4.640625 Z M 16.5625 -10.75 " />
            </g>
        </g>
    </g>
    <g fill="#161717" fill-opacity="1">
        <g transform="translate(202.552548, 230.780526)">
            <g>
                <path
                    d="M 15.765625 0 L 11.734375 -5.8125 L 7.296875 -5.8125 L 7.296875 0 L 2.46875 0 L 2.46875 -20.859375 L 11.5 -20.859375 C 13.34375 -20.859375 14.945312 -20.550781 16.3125 -19.9375 C 17.675781 -19.320312 18.722656 -18.445312 19.453125 -17.3125 C 20.191406 -16.175781 20.5625 -14.835938 20.5625 -13.296875 C 20.5625 -11.742188 20.1875 -10.40625 19.4375 -9.28125 C 18.695312 -8.15625 17.640625 -7.296875 16.265625 -6.703125 L 20.953125 0 Z M 15.671875 -13.296875 C 15.671875 -14.460938 15.289062 -15.359375 14.53125 -15.984375 C 13.78125 -16.609375 12.679688 -16.921875 11.234375 -16.921875 L 7.296875 -16.921875 L 7.296875 -9.65625 L 11.234375 -9.65625 C 12.679688 -9.65625 13.78125 -9.972656 14.53125 -10.609375 C 15.289062 -11.242188 15.671875 -12.140625 15.671875 -13.296875 Z M 15.671875 -13.296875 " />
            </g>
        </g>
    </g>
    <g fill="#161717" fill-opacity="1">
        <g transform="translate(243.587456, 230.780526)">
            <g>
                <path
                    d="M 12.578125 0.359375 C 10.410156 0.359375 8.457031 -0.101562 6.71875 -1.03125 C 4.976562 -1.96875 3.613281 -3.253906 2.625 -4.890625 C 1.644531 -6.535156 1.15625 -8.378906 1.15625 -10.421875 C 1.15625 -12.472656 1.644531 -14.316406 2.625 -15.953125 C 3.613281 -17.597656 4.976562 -18.882812 6.71875 -19.8125 C 8.457031 -20.75 10.410156 -21.21875 12.578125 -21.21875 C 14.742188 -21.21875 16.6875 -20.75 18.40625 -19.8125 C 20.132812 -18.882812 21.492188 -17.597656 22.484375 -15.953125 C 23.484375 -14.316406 23.984375 -12.472656 23.984375 -10.421875 C 23.984375 -8.378906 23.484375 -6.535156 22.484375 -4.890625 C 21.492188 -3.253906 20.132812 -1.96875 18.40625 -1.03125 C 16.6875 -0.101562 14.742188 0.359375 12.578125 0.359375 Z M 12.578125 -3.75 C 13.804688 -3.75 14.914062 -4.03125 15.90625 -4.59375 C 16.90625 -5.164062 17.6875 -5.957031 18.25 -6.96875 C 18.8125 -7.976562 19.09375 -9.128906 19.09375 -10.421875 C 19.09375 -11.710938 18.8125 -12.863281 18.25 -13.875 C 17.6875 -14.894531 16.90625 -15.6875 15.90625 -16.25 C 14.914062 -16.820312 13.804688 -17.109375 12.578125 -17.109375 C 11.347656 -17.109375 10.234375 -16.820312 9.234375 -16.25 C 8.242188 -15.6875 7.460938 -14.894531 6.890625 -13.875 C 6.328125 -12.863281 6.046875 -11.710938 6.046875 -10.421875 C 6.046875 -9.128906 6.328125 -7.976562 6.890625 -6.96875 C 7.460938 -5.957031 8.242188 -5.164062 9.234375 -4.59375 C 10.234375 -4.03125 11.347656 -3.75 12.578125 -3.75 Z M 12.578125 -3.75 " />
            </g>
        </g>
    </g>
    <g fill="#161717" fill-opacity="1">
        <g transform="translate(287.870152, 230.780526)">
            <g>
                <path
                    d="M 11.734375 0.359375 C 8.753906 0.359375 6.4375 -0.460938 4.78125 -2.109375 C 3.125 -3.765625 2.296875 -6.117188 2.296875 -9.171875 L 2.296875 -20.859375 L 7.125 -20.859375 L 7.125 -9.359375 C 7.125 -5.617188 8.671875 -3.75 11.765625 -3.75 C 13.273438 -3.75 14.425781 -4.203125 15.21875 -5.109375 C 16.019531 -6.015625 16.421875 -7.429688 16.421875 -9.359375 L 16.421875 -20.859375 L 21.1875 -20.859375 L 21.1875 -9.171875 C 21.1875 -6.117188 20.351562 -3.765625 18.6875 -2.109375 C 17.03125 -0.460938 14.710938 0.359375 11.734375 0.359375 Z M 11.734375 0.359375 " />
            </g>
        </g>
    </g>
    <g fill="#161717" fill-opacity="1">
        <g transform="translate(330.484252, 230.780526)">
            <g>
                <path
                    d="M 11.5 -20.859375 C 13.34375 -20.859375 14.945312 -20.550781 16.3125 -19.9375 C 17.675781 -19.320312 18.722656 -18.445312 19.453125 -17.3125 C 20.191406 -16.175781 20.5625 -14.835938 20.5625 -13.296875 C 20.5625 -11.765625 20.191406 -10.425781 19.453125 -9.28125 C 18.722656 -8.132812 17.675781 -7.257812 16.3125 -6.65625 C 14.945312 -6.050781 13.34375 -5.75 11.5 -5.75 L 7.296875 -5.75 L 7.296875 0 L 2.46875 0 L 2.46875 -20.859375 Z M 11.234375 -9.6875 C 12.679688 -9.6875 13.78125 -10 14.53125 -10.625 C 15.289062 -11.25 15.671875 -12.140625 15.671875 -13.296875 C 15.671875 -14.460938 15.289062 -15.359375 14.53125 -15.984375 C 13.78125 -16.609375 12.679688 -16.921875 11.234375 -16.921875 L 7.296875 -16.921875 L 7.296875 -9.6875 Z M 11.234375 -9.6875 " />
            </g>
        </g>
    </g>
    <g fill="#161717" fill-opacity="1">
        <g transform="translate(0.0000045, 181.690908)">
            <g>
                <path
                    d="M 28.90625 -17.625 C 30.84375 -17.007812 32.359375 -15.984375 33.453125 -14.546875 C 34.554688 -13.109375 35.109375 -11.34375 35.109375 -9.25 C 35.109375 -6.28125 33.953125 -3.992188 31.640625 -2.390625 C 29.335938 -0.796875 25.972656 0 21.546875 0 L 4.015625 0 L 4.015625 -33.890625 L 20.578125 -33.890625 C 24.710938 -33.890625 27.882812 -33.097656 30.09375 -31.515625 C 32.300781 -29.941406 33.40625 -27.796875 33.40625 -25.078125 C 33.40625 -23.429688 33.007812 -21.960938 32.21875 -20.671875 C 31.425781 -19.378906 30.320312 -18.363281 28.90625 -17.625 Z M 11.8125 -27.984375 L 11.8125 -20 L 19.609375 -20 C 21.546875 -20 23.015625 -20.335938 24.015625 -21.015625 C 25.015625 -21.691406 25.515625 -22.691406 25.515625 -24.015625 C 25.515625 -25.335938 25.015625 -26.328125 24.015625 -26.984375 C 23.015625 -27.648438 21.546875 -27.984375 19.609375 -27.984375 Z M 20.96875 -5.90625 C 23.03125 -5.90625 24.585938 -6.242188 25.640625 -6.921875 C 26.691406 -7.597656 27.21875 -8.648438 27.21875 -10.078125 C 27.21875 -12.878906 25.132812 -14.28125 20.96875 -14.28125 L 11.8125 -14.28125 L 11.8125 -5.90625 Z M 20.96875 -5.90625 " />
            </g>
        </g>
    </g>
    <g fill="#161717" fill-opacity="1">
        <g transform="translate(36.061805, 181.690908)">
            <g>
                <path
                    d="M 14 -26.4375 C 18.03125 -26.4375 21.125 -25.472656 23.28125 -23.546875 C 25.445312 -21.628906 26.53125 -18.734375 26.53125 -14.859375 L 26.53125 0 L 19.46875 0 L 19.46875 -3.25 C 18.039062 -0.820312 15.394531 0.390625 11.53125 0.390625 C 9.519531 0.390625 7.78125 0.0507812 6.3125 -0.625 C 4.84375 -1.300781 3.722656 -2.238281 2.953125 -3.4375 C 2.179688 -4.632812 1.796875 -5.988281 1.796875 -7.5 C 1.796875 -9.925781 2.707031 -11.832031 4.53125 -13.21875 C 6.351562 -14.601562 9.171875 -15.296875 12.984375 -15.296875 L 18.984375 -15.296875 C 18.984375 -16.941406 18.484375 -18.207031 17.484375 -19.09375 C 16.484375 -19.988281 14.984375 -20.4375 12.984375 -20.4375 C 11.585938 -20.4375 10.21875 -20.21875 8.875 -19.78125 C 7.539062 -19.34375 6.40625 -18.753906 5.46875 -18.015625 L 2.765625 -23.296875 C 4.179688 -24.296875 5.878906 -25.066406 7.859375 -25.609375 C 9.847656 -26.160156 11.894531 -26.4375 14 -26.4375 Z M 13.40625 -4.703125 C 14.695312 -4.703125 15.84375 -5 16.84375 -5.59375 C 17.851562 -6.1875 18.566406 -7.066406 18.984375 -8.234375 L 18.984375 -10.890625 L 13.796875 -10.890625 C 10.703125 -10.890625 9.15625 -9.875 9.15625 -7.84375 C 9.15625 -6.875 9.53125 -6.109375 10.28125 -5.546875 C 11.039062 -4.984375 12.082031 -4.703125 13.40625 -4.703125 Z M 13.40625 -4.703125 " />
            </g>
        </g>
    </g>
    <g fill="#161717" fill-opacity="1">
        <g transform="translate(64.959531, 181.690908)">
            <g>
                <path
                    d="M 3.484375 -35.921875 L 11.046875 -35.921875 L 11.046875 0 L 3.484375 0 Z M 3.484375 -35.921875 " />
            </g>
        </g>
    </g>
    <g fill="#161717" fill-opacity="1">
        <g transform="translate(78.56099, 181.690908)">
            <g>
                <path
                    d="M 30.015625 -35.921875 L 30.015625 0 L 22.8125 0 L 22.8125 -3 C 20.9375 -0.738281 18.222656 0.390625 14.671875 0.390625 C 12.210938 0.390625 9.988281 -0.15625 8 -1.25 C 6.019531 -2.351562 4.460938 -3.921875 3.328125 -5.953125 C 2.203125 -7.984375 1.640625 -10.34375 1.640625 -13.03125 C 1.640625 -15.707031 2.203125 -18.0625 3.328125 -20.09375 C 4.460938 -22.125 6.019531 -23.6875 8 -24.78125 C 9.988281 -25.882812 12.210938 -26.4375 14.671875 -26.4375 C 17.992188 -26.4375 20.59375 -25.390625 22.46875 -23.296875 L 22.46875 -35.921875 Z M 15.984375 -5.8125 C 17.890625 -5.8125 19.46875 -6.460938 20.71875 -7.765625 C 21.976562 -9.078125 22.609375 -10.832031 22.609375 -13.03125 C 22.609375 -15.21875 21.976562 -16.960938 20.71875 -18.265625 C 19.46875 -19.578125 17.890625 -20.234375 15.984375 -20.234375 C 14.046875 -20.234375 12.445312 -19.578125 11.1875 -18.265625 C 9.925781 -16.960938 9.296875 -15.21875 9.296875 -13.03125 C 9.296875 -10.832031 9.925781 -9.078125 11.1875 -7.765625 C 12.445312 -6.460938 14.046875 -5.8125 15.984375 -5.8125 Z M 15.984375 -5.8125 " />
            </g>
        </g>
    </g>
    <g fill="#161717" fill-opacity="1">
        <g transform="translate(111.089166, 181.690908)">
            <g>
                <path
                    d="M 45.328125 -26.046875 L 35.875 0 L 28.625 0 L 22.765625 -16.171875 L 16.703125 0 L 9.4375 0 L 0.046875 -26.046875 L 7.171875 -26.046875 L 13.3125 -8.421875 L 19.703125 -26.046875 L 26.09375 -26.046875 L 32.296875 -8.421875 L 38.640625 -26.046875 Z M 45.328125 -26.046875 " />
            </g>
        </g>
    </g>
    <g fill="#161717" fill-opacity="1">
        <g transform="translate(155.476776, 181.690908)">
            <g>
                <path
                    d="M 3.484375 -26.046875 L 11.046875 -26.046875 L 11.046875 0 L 3.484375 0 Z M 7.265625 -29.6875 C 5.878906 -29.6875 4.75 -30.085938 3.875 -30.890625 C 3.007812 -31.703125 2.578125 -32.703125 2.578125 -33.890625 C 2.578125 -35.085938 3.007812 -36.085938 3.875 -36.890625 C 4.75 -37.703125 5.878906 -38.109375 7.265625 -38.109375 C 8.660156 -38.109375 9.789062 -37.71875 10.65625 -36.9375 C 11.53125 -36.164062 11.96875 -35.203125 11.96875 -34.046875 C 11.96875 -32.785156 11.53125 -31.742188 10.65625 -30.921875 C 9.789062 -30.097656 8.660156 -29.6875 7.265625 -29.6875 Z M 7.265625 -29.6875 " />
            </g>
        </g>
    </g>
    <g fill="#161717" fill-opacity="1">
        <g transform="translate(169.078229, 181.690908)">
            <g>
                <path
                    d="M 19.328125 -26.4375 C 22.546875 -26.4375 25.148438 -25.46875 27.140625 -23.53125 C 29.128906 -21.59375 30.125 -18.71875 30.125 -14.90625 L 30.125 0 L 22.5625 0 L 22.5625 -13.75 C 22.5625 -15.8125 22.109375 -17.351562 21.203125 -18.375 C 20.304688 -19.394531 19 -19.90625 17.28125 -19.90625 C 15.382812 -19.90625 13.867188 -19.3125 12.734375 -18.125 C 11.609375 -16.945312 11.046875 -15.195312 11.046875 -12.875 L 11.046875 0 L 3.484375 0 L 3.484375 -26.046875 L 10.703125 -26.046875 L 10.703125 -23 C 11.703125 -24.09375 12.941406 -24.9375 14.421875 -25.53125 C 15.910156 -26.132812 17.546875 -26.4375 19.328125 -26.4375 Z M 19.328125 -26.4375 " />
            </g>
        </g>
    </g>
    <g fill="#161717" fill-opacity="1">
        <g transform="translate(201.557998, 181.690908)">
            <g />
        </g>
    </g>
    <g fill="#161717" fill-opacity="1">
        <g transform="translate(214.288157, 181.690908)">
            <g>
                <path
                    d="M 34.859375 0 L 34.8125 -20.34375 L 24.84375 -3.578125 L 21.3125 -3.578125 L 11.375 -19.90625 L 11.375 0 L 4.015625 0 L 4.015625 -33.890625 L 10.5 -33.890625 L 23.1875 -12.828125 L 35.6875 -33.890625 L 42.125 -33.890625 L 42.21875 0 Z M 34.859375 0 " />
            </g>
        </g>
    </g>
    <g fill="#161717" fill-opacity="1">
        <g transform="translate(259.547085, 181.690908)">
            <g>
                <path
                    d="M 14 -26.4375 C 18.03125 -26.4375 21.125 -25.472656 23.28125 -23.546875 C 25.445312 -21.628906 26.53125 -18.734375 26.53125 -14.859375 L 26.53125 0 L 19.46875 0 L 19.46875 -3.25 C 18.039062 -0.820312 15.394531 0.390625 11.53125 0.390625 C 9.519531 0.390625 7.78125 0.0507812 6.3125 -0.625 C 4.84375 -1.300781 3.722656 -2.238281 2.953125 -3.4375 C 2.179688 -4.632812 1.796875 -5.988281 1.796875 -7.5 C 1.796875 -9.925781 2.707031 -11.832031 4.53125 -13.21875 C 6.351562 -14.601562 9.171875 -15.296875 12.984375 -15.296875 L 18.984375 -15.296875 C 18.984375 -16.941406 18.484375 -18.207031 17.484375 -19.09375 C 16.484375 -19.988281 14.984375 -20.4375 12.984375 -20.4375 C 11.585938 -20.4375 10.21875 -20.21875 8.875 -19.78125 C 7.539062 -19.34375 6.40625 -18.753906 5.46875 -18.015625 L 2.765625 -23.296875 C 4.179688 -24.296875 5.878906 -25.066406 7.859375 -25.609375 C 9.847656 -26.160156 11.894531 -26.4375 14 -26.4375 Z M 13.40625 -4.703125 C 14.695312 -4.703125 15.84375 -5 16.84375 -5.59375 C 17.851562 -6.1875 18.566406 -7.066406 18.984375 -8.234375 L 18.984375 -10.890625 L 13.796875 -10.890625 C 10.703125 -10.890625 9.15625 -9.875 9.15625 -7.84375 C 9.15625 -6.875 9.53125 -6.109375 10.28125 -5.546875 C 11.039062 -4.984375 12.082031 -4.703125 13.40625 -4.703125 Z M 13.40625 -4.703125 " />
            </g>
        </g>
    </g>
    <g fill="#161717" fill-opacity="1">
        <g transform="translate(288.444805, 181.690908)">
            <g>
                <path
                    d="M 30.015625 -35.921875 L 30.015625 0 L 22.8125 0 L 22.8125 -3 C 20.9375 -0.738281 18.222656 0.390625 14.671875 0.390625 C 12.210938 0.390625 9.988281 -0.15625 8 -1.25 C 6.019531 -2.351562 4.460938 -3.921875 3.328125 -5.953125 C 2.203125 -7.984375 1.640625 -10.34375 1.640625 -13.03125 C 1.640625 -15.707031 2.203125 -18.0625 3.328125 -20.09375 C 4.460938 -22.125 6.019531 -23.6875 8 -24.78125 C 9.988281 -25.882812 12.210938 -26.4375 14.671875 -26.4375 C 17.992188 -26.4375 20.59375 -25.390625 22.46875 -23.296875 L 22.46875 -35.921875 Z M 15.984375 -5.8125 C 17.890625 -5.8125 19.46875 -6.460938 20.71875 -7.765625 C 21.976562 -9.078125 22.609375 -10.832031 22.609375 -13.03125 C 22.609375 -15.21875 21.976562 -16.960938 20.71875 -18.265625 C 19.46875 -19.578125 17.890625 -20.234375 15.984375 -20.234375 C 14.046875 -20.234375 12.445312 -19.578125 11.1875 -18.265625 C 9.925781 -16.960938 9.296875 -15.21875 9.296875 -13.03125 C 9.296875 -10.832031 9.925781 -9.078125 11.1875 -7.765625 C 12.445312 -6.460938 14.046875 -5.8125 15.984375 -5.8125 Z M 15.984375 -5.8125 " />
            </g>
        </g>
    </g>
    <g fill="#161717" fill-opacity="1">
        <g transform="translate(320.972974, 181.690908)">
            <g>
                <path
                    d="M 29 -12.921875 C 29 -12.828125 28.953125 -12.148438 28.859375 -10.890625 L 9.15625 -10.890625 C 9.507812 -9.273438 10.347656 -8 11.671875 -7.0625 C 12.992188 -6.132812 14.640625 -5.671875 16.609375 -5.671875 C 17.960938 -5.671875 19.164062 -5.867188 20.21875 -6.265625 C 21.269531 -6.671875 22.242188 -7.3125 23.140625 -8.1875 L 27.171875 -3.828125 C 24.710938 -1.015625 21.128906 0.390625 16.421875 0.390625 C 13.484375 0.390625 10.882812 -0.179688 8.625 -1.328125 C 6.363281 -2.472656 4.617188 -4.0625 3.390625 -6.09375 C 2.160156 -8.132812 1.546875 -10.445312 1.546875 -13.03125 C 1.546875 -15.570312 2.148438 -17.867188 3.359375 -19.921875 C 4.578125 -21.972656 6.242188 -23.570312 8.359375 -24.71875 C 10.472656 -25.863281 12.835938 -26.4375 15.453125 -26.4375 C 17.992188 -26.4375 20.296875 -25.882812 22.359375 -24.78125 C 24.429688 -23.6875 26.054688 -22.113281 27.234375 -20.0625 C 28.410156 -18.019531 29 -15.640625 29 -12.921875 Z M 15.5 -20.71875 C 13.78125 -20.71875 12.335938 -20.234375 11.171875 -19.265625 C 10.015625 -18.296875 9.3125 -16.972656 9.0625 -15.296875 L 21.890625 -15.296875 C 21.628906 -16.941406 20.914062 -18.253906 19.75 -19.234375 C 18.59375 -20.222656 17.175781 -20.71875 15.5 -20.71875 Z M 15.5 -20.71875 " />
            </g>
        </g>
    </g>
    <g fill="#161717" fill-opacity="1">
        <g transform="translate(350.548388, 181.690908)">
            <g>
                <path
                    d="M 10.703125 -22.609375 C 11.609375 -23.867188 12.828125 -24.820312 14.359375 -25.46875 C 15.890625 -26.113281 17.65625 -26.4375 19.65625 -26.4375 L 19.65625 -19.46875 C 18.820312 -19.53125 18.257812 -19.5625 17.96875 -19.5625 C 15.800781 -19.5625 14.101562 -18.957031 12.875 -17.75 C 11.65625 -16.539062 11.046875 -14.722656 11.046875 -12.296875 L 11.046875 0 L 3.484375 0 L 3.484375 -26.046875 L 10.703125 -26.046875 Z M 10.703125 -22.609375 " />
            </g>
        </g>
    </g>
</svg>